<?xml version="1.0" encoding="UTF-8"?>
<svg version="1.1" xmlns="http://www.w3.org/2000/svg" width="1254" height="1254">
<path d="M0 0 C413.82 0 827.64 0 1254 0 C1254 413.82 1254 827.64 1254 1254 C840.18 1254 426.36 1254 0 1254 C0 840.18 0 426.36 0 0 Z " fill="#FDFDFD" transform="translate(0,0)"/>
<path d="M0 0 C8.97647608 5.62105211 14.00763323 14.58917081 16.8203125 24.71875 C21.14923383 49.97079112 11.89565356 76.26711291 4.26171875 99.98486328 C3.43975143 102.5485951 2.62849555 105.11548578 1.8203125 107.68359375 C-4.74068909 128.50363392 -11.71508109 149.17858588 -18.8828125 169.796875 C-22.00986802 178.83601987 -24.97018922 187.92000286 -27.77954102 197.06298828 C-29.63325537 203.00363593 -31.81686145 208.69790121 -34.25805664 214.42114258 C-36.06054214 218.74459632 -37.67023003 223.13228702 -39.29516602 227.52490234 C-44.68243033 242.0680288 -50.71014506 256.22462314 -57.12890625 270.34716797 C-58.50757821 273.42604464 -59.83792809 276.52047873 -61.1484375 279.62890625 C-66.28267621 291.79556323 -72.00100523 303.38463618 -78.59008789 314.83325195 C-79.27954355 316.0469103 -79.93045746 317.28278993 -80.5546875 318.53125 C-69.44197136 307.8772267 -59.06010827 297.179388 -50.08300781 284.65380859 C-48.52213929 282.48604646 -46.92908047 280.34532 -45.328125 278.20703125 C-37.04418178 267.06122732 -29.70099076 255.43074175 -22.5546875 243.53125 C-22.12091797 242.81678711 -21.68714844 242.10232422 -21.24023438 241.36621094 C-13.15350299 228.04425013 -5.8510464 214.29712459 1.4453125 200.53125 C2.32896484 198.87681885 2.32896484 198.87681885 3.23046875 197.18896484 C12.3190108 180.1429548 20.62695266 162.82408387 28.57299805 145.21850586 C35.50341535 129.94378055 42.84768219 114.64215232 53.4453125 101.53125 C54.11820313 100.68304688 54.79109375 99.83484375 55.484375 98.9609375 C64.05985757 88.76390914 75.85693227 79.71692799 89.4453125 78.1953125 C100.14184555 77.84058054 108.06110938 80.27386363 116.18359375 87.3125 C125.58492129 96.53521855 127.51485512 107.46363035 127.8203125 120.34375 C127.61937014 137.70433272 123.37731398 157.11622826 115.4453125 172.53125 C114.67006141 174.80773982 113.94020799 177.10022386 113.2578125 179.40625 C112.91363281 180.55867187 112.56945312 181.71109375 112.21484375 182.8984375 C111.96089844 183.76726562 111.70695313 184.63609375 111.4453125 185.53125 C110.7853125 185.53125 110.1253125 185.53125 109.4453125 185.53125 C109.3525 186.954375 109.3525 186.954375 109.2578125 188.40625 C108.65584551 192.65393253 106.81752493 195.91865738 104.828125 199.67578125 C103.30666897 202.81754497 102.18840836 205.97509237 101.0703125 209.28125 C98.8923897 215.6013614 96.17778063 221.36744795 93.09375 227.27734375 C91.69762933 230.03319331 90.47097287 232.81018653 89.26330566 235.65104675 C87.94982632 238.67015281 86.51376647 241.62950581 85.07421875 244.58984375 C84.75586563 245.24746704 84.43751251 245.90509033 84.10951233 246.5826416 C83.07760461 248.71231784 82.04302066 250.84067628 81.0078125 252.96875 C80.65249451 253.69990021 80.29717651 254.43105042 79.93109131 255.18435669 C77.44264048 260.30332191 74.946947 265.41871525 72.4453125 270.53125 C72.14570618 271.14355469 71.84609985 271.75585938 71.53741455 272.38671875 C60.34004888 295.24757318 48.40681126 316.91027083 33.4453125 337.53125 C41.95016295 330.98563211 48.37467005 322.5138458 54.79296875 314 C56.90212499 311.20596563 59.09735228 308.49044469 61.3046875 305.7734375 C65.34607078 300.73554228 69.02718054 295.5117311 72.6328125 290.15625 C73.27573242 289.20580811 73.91865234 288.25536621 74.58105469 287.27612305 C76.54338849 284.36616445 78.49648018 281.45026513 80.4453125 278.53125 C81.03070801 277.6551709 81.61610352 276.7790918 82.21923828 275.87646484 C90.11017583 264.02077914 97.41843971 251.91494299 104.4453125 239.53125 C124.18985541 204.8675478 124.18985541 204.8675478 136.4453125 193.53125 C137.30189453 192.70173828 137.30189453 192.70173828 138.17578125 191.85546875 C147.46676424 183.19501155 156.84981265 180.02606471 169.3515625 180.25390625 C176.75971247 180.59542876 183.49975673 183.43225269 188.83984375 188.6328125 C199.23287403 200.92238115 197.3253767 215.25965856 196.140625 230.43359375 C191.24977874 262.67555718 170.09877026 296.14801545 153.4453125 323.53125 C152.89101563 324.44729004 152.33671875 325.36333008 151.765625 326.30712891 C131.99092184 358.91101889 110.08459833 390.62174132 85.88452148 420.11010742 C73.23252274 435.53821635 61.40503201 451.21820066 51.4453125 468.53125 C51.02975098 469.2442627 50.61418945 469.95727539 50.18603516 470.69189453 C40.37081394 487.58632014 32.21691227 505.27031804 24.49169922 523.19970703 C15.03938254 545.10338611 5.49154373 566.90368698 -6.5546875 587.53125 C-7.02890137 588.3464209 -7.50311523 589.1615918 -7.99169922 590.00146484 C-13.63742661 599.63783918 -19.60781324 608.77382257 -26.5546875 617.53125 C-27.22113281 618.38976562 -27.88757813 619.24828125 -28.57421875 620.1328125 C-32.65091443 625.32718214 -36.94468436 630.27506731 -41.39453125 635.15234375 C-43.35738683 637.31396952 -45.2743501 639.50651262 -47.1796875 641.71875 C-52.84050039 648.19940475 -59.02467398 653.94190844 -65.5546875 659.53125 C-66.47894531 660.34464844 -67.40320313 661.15804687 -68.35546875 661.99609375 C-76.97104148 669.51361674 -86.15260375 676.04080779 -95.5546875 682.53125 C-104.02910013 688.39328145 -112.10481579 694.36741176 -119.5546875 701.53125 C-120.26238281 702.21058594 -120.97007812 702.88992188 -121.69921875 703.58984375 C-124.87865898 706.70849162 -127.90931647 709.89750314 -130.8046875 713.28125 C-139.7713672 723.58382329 -148.68688602 731.74578719 -160.5546875 738.53125 C-161.54210937 739.09585938 -162.52953125 739.66046875 -163.546875 740.2421875 C-192.91846174 755.92295332 -229.62099742 755.40923613 -261.5546875 749.53125 C-262.37533691 749.38091309 -263.19598633 749.23057617 -264.04150391 749.07568359 C-297.49431791 742.62622215 -329.55261956 729.13804252 -358.5546875 711.53125 C-359.15458496 711.16821777 -359.75448242 710.80518555 -360.37255859 710.43115234 C-386.98383755 694.1005811 -409.60224028 670.34698297 -417.5546875 639.53125 C-419.03308996 632.50618568 -420.29083347 625.44414309 -421.42651367 618.35595703 C-423.1780766 607.54591724 -425.25219027 597.12408215 -431.5546875 587.96875 C-432.35524386 586.77546155 -433.15466209 585.581409 -433.953125 584.38671875 C-434.58686035 583.45158447 -434.58686035 583.45158447 -435.23339844 582.49755859 C-448.72572393 562.41862483 -460.79991613 541.40864319 -471.6171875 519.78125 C-471.92484039 519.1678476 -472.23249329 518.55444519 -472.54946899 517.92245483 C-476.88019917 509.2579339 -480.84164274 500.47695879 -484.5546875 491.53125 C-485.09452271 490.24226807 -485.09452271 490.24226807 -485.64526367 488.92724609 C-497.06241922 461.09704037 -504.23074721 432.23721677 -508.5546875 402.53125 C-510.55531582 388.65207195 -510.55531582 388.65207195 -513.87890625 375.046875 C-514.61146401 372.31989699 -515.02993808 369.63825997 -515.4296875 366.84375 C-517.03306078 356.56879958 -520.52314433 346.5571452 -524.54296875 336.9921875 C-525.27044832 335.2226426 -525.94985985 333.43305568 -526.59765625 331.6328125 C-533.79892122 311.72487863 -544.67571222 295.38820505 -559.27856445 280.23266602 C-563.88110972 275.40387287 -567.71612052 270.62062398 -570.5546875 264.53125 C-571.2353125 263.0771875 -571.2353125 263.0771875 -571.9296875 261.59375 C-573.81909586 252.33564905 -572.68428946 245.47737081 -567.5546875 237.53125 C-561.6173504 228.65167167 -551.59883359 223.56785231 -541.5546875 220.53125 C-517.76258153 216.30779924 -493.22538882 223.89413699 -473.5546875 237.53125 C-468.64444966 241.25594111 -464.07973097 245.35361869 -459.5546875 249.53125 C-458.73226562 250.27117187 -457.90984375 251.01109375 -457.0625 251.7734375 C-439.14114963 268.67435511 -429.01451971 291.7706316 -419.46188354 314.01428223 C-407.1223563 343.76140337 -407.1223563 343.76140337 -384.5546875 365.53125 C-376.31482311 366.46550972 -370.89314891 364.83563369 -364.375 359.87109375 C-358.29161726 354.74547542 -353.38498246 348.82334475 -348.5546875 342.53125 C-348.12929688 341.98082031 -347.70390625 341.43039062 -347.265625 340.86328125 C-335.60948578 325.69666735 -326.2805449 309.39716619 -317.55322266 292.41137695 C-316.73221601 290.86551578 -315.83654352 289.35954141 -314.921875 287.8671875 C-313.33198723 285.15075067 -312.2697271 282.42063575 -311.1796875 279.46875 C-308.43627553 272.17488825 -305.442595 265.00348055 -302.41235352 257.82519531 C-298.64095017 248.84077621 -295.10112536 239.77129158 -291.57226562 230.68945312 C-289.30493608 224.88318683 -286.97922841 219.13474189 -284.40649414 213.45727539 C-283.15717273 210.63242684 -282.10677255 207.74710009 -281.0546875 204.84375 C-277.55516969 195.3276847 -273.74371419 185.9348321 -269.95703125 176.53051758 C-267.14679773 169.54578715 -264.39185484 162.54340365 -261.70239258 155.51123047 C-260.68907211 152.88017545 -259.65398431 150.26012875 -258.6015625 147.64453125 C-255.9419835 141.02610787 -253.36465934 134.37618698 -250.8046875 127.71875 C-250.52967407 127.00458923 -250.25466064 126.29042847 -249.97131348 125.55462646 C-246.33212708 116.08190876 -242.82827681 106.56893152 -239.4609375 96.99609375 C-239.11512634 96.01430649 -238.76931519 95.03251923 -238.4130249 94.02098083 C-236.72037425 89.20764434 -235.03983283 84.39050198 -233.37597656 79.56713867 C-225.94963914 58.21555478 -217.35186363 36.93401585 -202.5546875 19.53125 C-201.87921875 18.69980469 -201.20375 17.86835938 -200.5078125 17.01171875 C-192.08091648 7.04586831 -181.10907394 -0.48386638 -167.87890625 -1.84765625 C-159.94172568 -2.09494529 -153.53244036 -1.33394034 -146.5546875 2.53125 C-145.60529297 3.03978516 -145.60529297 3.03978516 -144.63671875 3.55859375 C-136.02354667 8.90142235 -131.57358811 18.06082928 -129.21875 27.61328125 C-124.02187255 58.2748582 -136.61514924 90.39743041 -145.54467773 119.26477051 C-146.61131998 122.7144055 -147.67417058 126.16519257 -148.73632812 129.61621094 C-151.72370449 139.31872527 -154.7134023 149.02047783 -157.72949219 158.71411133 C-160.81058795 168.61913659 -163.87425582 178.52417637 -166.76914978 188.4853363 C-168.46726698 194.30077648 -170.2866527 200.07451823 -172.12269592 205.84767151 C-175.30058102 215.8507225 -178.37607303 225.88524838 -181.45874023 235.91796875 C-182.4866624 239.26326896 -183.5157026 242.60822366 -184.54492188 245.953125 C-185.8912848 250.3290356 -187.23364918 254.70614647 -188.57373047 259.08398438 C-189.90638858 263.43395204 -191.25623491 267.77809931 -192.61767578 272.11914062 C-192.94441788 273.16966614 -193.27115997 274.22019165 -193.60780334 275.30255127 C-194.22494594 277.28668586 -194.84739091 279.26918188 -195.47605896 281.24969482 C-195.75023148 282.13570374 -196.02440399 283.02171265 -196.30688477 283.93457031 C-196.54883072 284.70488586 -196.79077667 285.47520142 -197.04005432 286.26885986 C-197.60503699 288.7525925 -197.64417299 290.99232036 -197.5546875 293.53125 C-182.07725442 288.74582458 -170.94509198 261.81170503 -163.63867188 248.484375 C-162.57586233 246.56940285 -161.48535304 244.6735817 -160.3828125 242.78125 C-144.49397214 215.39963516 -132.32159498 185.59297743 -119.90478516 156.50170898 C-117.3055221 150.44138389 -114.58593572 144.50240041 -111.58862305 138.62915039 C-110.34878468 136.11346418 -109.37745286 133.56616359 -108.4921875 130.90625 C-107.41812041 127.68899834 -106.17007717 124.71876364 -104.6171875 121.7109375 C-102.56016261 117.67481613 -101.05226061 113.5710971 -99.6171875 109.28125 C-97.53096358 103.19676139 -95.23691263 97.27032967 -92.703125 91.35546875 C-91.51998127 88.44590099 -90.52108532 85.51935206 -89.5546875 82.53125 C-86.8577582 74.2229678 -83.5164892 66.25163946 -79.50390625 58.49609375 C-78.47104008 56.35810328 -77.64032159 54.1910258 -76.8046875 51.96875 C-72.53077303 41.09121866 -66.64873395 30.80342585 -59.5546875 21.53125 C-58.87792969 20.62761719 -58.20117188 19.72398437 -57.50390625 18.79296875 C-43.37966575 0.6547345 -22.5291655 -11.29596042 0 0 Z " fill="#FCC2A1" transform="translate(831.5546875,254.46875)"/>
<path d="M0 0 C8.97647608 5.62105211 14.00763323 14.58917081 16.8203125 24.71875 C21.14923383 49.97079112 11.89565356 76.26711291 4.26171875 99.98486328 C3.43975143 102.5485951 2.62849555 105.11548578 1.8203125 107.68359375 C-4.74068909 128.50363392 -11.71508109 149.17858588 -18.8828125 169.796875 C-22.00986802 178.83601987 -24.97018922 187.92000286 -27.77954102 197.06298828 C-29.63325537 203.00363593 -31.81686145 208.69790121 -34.25805664 214.42114258 C-36.06054214 218.74459632 -37.67023003 223.13228702 -39.29516602 227.52490234 C-44.68243033 242.0680288 -50.71014506 256.22462314 -57.12890625 270.34716797 C-58.50757821 273.42604464 -59.83792809 276.52047873 -61.1484375 279.62890625 C-66.28267621 291.79556323 -72.00100523 303.38463618 -78.59008789 314.83325195 C-79.27954355 316.0469103 -79.93045746 317.28278993 -80.5546875 318.53125 C-69.44197136 307.8772267 -59.06010827 297.179388 -50.08300781 284.65380859 C-48.52213929 282.48604646 -46.92908047 280.34532 -45.328125 278.20703125 C-37.04418178 267.06122732 -29.70099076 255.43074175 -22.5546875 243.53125 C-22.12091797 242.81678711 -21.68714844 242.10232422 -21.24023438 241.36621094 C-13.15350299 228.04425013 -5.8510464 214.29712459 1.4453125 200.53125 C2.32896484 198.87681885 2.32896484 198.87681885 3.23046875 197.18896484 C12.3190108 180.1429548 20.62695266 162.82408387 28.57299805 145.21850586 C35.50341535 129.94378055 42.84768219 114.64215232 53.4453125 101.53125 C54.11820313 100.68304688 54.79109375 99.83484375 55.484375 98.9609375 C64.05985757 88.76390914 75.85693227 79.71692799 89.4453125 78.1953125 C100.14184555 77.84058054 108.06110938 80.27386363 116.18359375 87.3125 C125.58492129 96.53521855 127.51485512 107.46363035 127.8203125 120.34375 C127.61937014 137.70433272 123.37731398 157.11622826 115.4453125 172.53125 C114.67006141 174.80773982 113.94020799 177.10022386 113.2578125 179.40625 C112.91363281 180.55867187 112.56945312 181.71109375 112.21484375 182.8984375 C111.96089844 183.76726562 111.70695313 184.63609375 111.4453125 185.53125 C110.7853125 185.53125 110.1253125 185.53125 109.4453125 185.53125 C109.3525 186.954375 109.3525 186.954375 109.2578125 188.40625 C108.65584551 192.65393253 106.81752493 195.91865738 104.828125 199.67578125 C103.30666897 202.81754497 102.18840836 205.97509237 101.0703125 209.28125 C98.8923897 215.6013614 96.17778063 221.36744795 93.09375 227.27734375 C91.69762933 230.03319331 90.47097287 232.81018653 89.26330566 235.65104675 C87.94982632 238.67015281 86.51376647 241.62950581 85.07421875 244.58984375 C84.75586563 245.24746704 84.43751251 245.90509033 84.10951233 246.5826416 C83.07760461 248.71231784 82.04302066 250.84067628 81.0078125 252.96875 C80.65249451 253.69990021 80.29717651 254.43105042 79.93109131 255.18435669 C77.44264048 260.30332191 74.946947 265.41871525 72.4453125 270.53125 C72.14570618 271.14355469 71.84609985 271.75585938 71.53741455 272.38671875 C60.34004888 295.24757318 48.40681126 316.91027083 33.4453125 337.53125 C41.95016295 330.98563211 48.37467005 322.5138458 54.79296875 314 C56.90212499 311.20596563 59.09735228 308.49044469 61.3046875 305.7734375 C65.34607078 300.73554228 69.02718054 295.5117311 72.6328125 290.15625 C73.27573242 289.20580811 73.91865234 288.25536621 74.58105469 287.27612305 C76.54338849 284.36616445 78.49648018 281.45026513 80.4453125 278.53125 C81.03070801 277.6551709 81.61610352 276.7790918 82.21923828 275.87646484 C90.11017583 264.02077914 97.41843971 251.91494299 104.4453125 239.53125 C124.18985541 204.8675478 124.18985541 204.8675478 136.4453125 193.53125 C137.30189453 192.70173828 137.30189453 192.70173828 138.17578125 191.85546875 C147.46676424 183.19501155 156.84981265 180.02606471 169.3515625 180.25390625 C176.75971247 180.59542876 183.49975673 183.43225269 188.83984375 188.6328125 C199.23287403 200.92238115 197.3253767 215.25965856 196.140625 230.43359375 C191.24977874 262.67555718 170.09877026 296.14801545 153.4453125 323.53125 C152.89101563 324.44729004 152.33671875 325.36333008 151.765625 326.30712891 C131.99092184 358.91101889 110.08459833 390.62174132 85.88452148 420.11010742 C73.23252274 435.53821635 61.40503201 451.21820066 51.4453125 468.53125 C51.02975098 469.2442627 50.61418945 469.95727539 50.18603516 470.69189453 C40.37081394 487.58632014 32.21691227 505.27031804 24.49169922 523.19970703 C15.03938254 545.10338611 5.49154373 566.90368698 -6.5546875 587.53125 C-7.02890137 588.3464209 -7.50311523 589.1615918 -7.99169922 590.00146484 C-13.63742661 599.63783918 -19.60781324 608.77382257 -26.5546875 617.53125 C-27.22113281 618.38976562 -27.88757813 619.24828125 -28.57421875 620.1328125 C-32.65091443 625.32718214 -36.94468436 630.27506731 -41.39453125 635.15234375 C-43.35738683 637.31396952 -45.2743501 639.50651262 -47.1796875 641.71875 C-52.84050039 648.19940475 -59.02467398 653.94190844 -65.5546875 659.53125 C-66.47894531 660.34464844 -67.40320313 661.15804687 -68.35546875 661.99609375 C-76.97104148 669.51361674 -86.15260375 676.04080779 -95.5546875 682.53125 C-104.02910013 688.39328145 -112.10481579 694.36741176 -119.5546875 701.53125 C-120.26238281 702.21058594 -120.97007812 702.88992188 -121.69921875 703.58984375 C-124.87865898 706.70849162 -127.90931647 709.89750314 -130.8046875 713.28125 C-139.7713672 723.58382329 -148.68688602 731.74578719 -160.5546875 738.53125 C-161.54210937 739.09585938 -162.52953125 739.66046875 -163.546875 740.2421875 C-192.91846174 755.92295332 -229.62099742 755.40923613 -261.5546875 749.53125 C-262.37533691 749.38091309 -263.19598633 749.23057617 -264.04150391 749.07568359 C-297.49431791 742.62622215 -329.55261956 729.13804252 -358.5546875 711.53125 C-359.15458496 711.16821777 -359.75448242 710.80518555 -360.37255859 710.43115234 C-386.98383755 694.1005811 -409.60224028 670.34698297 -417.5546875 639.53125 C-419.03308996 632.50618568 -420.29083347 625.44414309 -421.42651367 618.35595703 C-423.1780766 607.54591724 -425.25219027 597.12408215 -431.5546875 587.96875 C-432.35524386 586.77546155 -433.15466209 585.581409 -433.953125 584.38671875 C-434.58686035 583.45158447 -434.58686035 583.45158447 -435.23339844 582.49755859 C-448.72572393 562.41862483 -460.79991613 541.40864319 -471.6171875 519.78125 C-471.92484039 519.1678476 -472.23249329 518.55444519 -472.54946899 517.92245483 C-476.88019917 509.2579339 -480.84164274 500.47695879 -484.5546875 491.53125 C-485.09452271 490.24226807 -485.09452271 490.24226807 -485.64526367 488.92724609 C-497.06241922 461.09704037 -504.23074721 432.23721677 -508.5546875 402.53125 C-510.55531582 388.65207195 -510.55531582 388.65207195 -513.87890625 375.046875 C-514.61146401 372.31989699 -515.02993808 369.63825997 -515.4296875 366.84375 C-517.03306078 356.56879958 -520.52314433 346.5571452 -524.54296875 336.9921875 C-525.27044832 335.2226426 -525.94985985 333.43305568 -526.59765625 331.6328125 C-533.79892122 311.72487863 -544.67571222 295.38820505 -559.27856445 280.23266602 C-563.88110972 275.40387287 -567.71612052 270.62062398 -570.5546875 264.53125 C-571.2353125 263.0771875 -571.2353125 263.0771875 -571.9296875 261.59375 C-573.81909586 252.33564905 -572.68428946 245.47737081 -567.5546875 237.53125 C-561.6173504 228.65167167 -551.59883359 223.56785231 -541.5546875 220.53125 C-517.76258153 216.30779924 -493.22538882 223.89413699 -473.5546875 237.53125 C-468.64444966 241.25594111 -464.07973097 245.35361869 -459.5546875 249.53125 C-458.73226562 250.27117187 -457.90984375 251.01109375 -457.0625 251.7734375 C-439.14114963 268.67435511 -429.01451971 291.7706316 -419.46188354 314.01428223 C-407.1223563 343.76140337 -407.1223563 343.76140337 -384.5546875 365.53125 C-376.31482311 366.46550972 -370.89314891 364.83563369 -364.375 359.87109375 C-358.29161726 354.74547542 -353.38498246 348.82334475 -348.5546875 342.53125 C-348.12929688 341.98082031 -347.70390625 341.43039062 -347.265625 340.86328125 C-335.60948578 325.69666735 -326.2805449 309.39716619 -317.55322266 292.41137695 C-316.73221601 290.86551578 -315.83654352 289.35954141 -314.921875 287.8671875 C-313.33198723 285.15075067 -312.2697271 282.42063575 -311.1796875 279.46875 C-308.43627553 272.17488825 -305.442595 265.00348055 -302.41235352 257.82519531 C-298.64095017 248.84077621 -295.10112536 239.77129158 -291.57226562 230.68945312 C-289.30493608 224.88318683 -286.97922841 219.13474189 -284.40649414 213.45727539 C-283.15717273 210.63242684 -282.10677255 207.74710009 -281.0546875 204.84375 C-277.55516969 195.3276847 -273.74371419 185.9348321 -269.95703125 176.53051758 C-267.14679773 169.54578715 -264.39185484 162.54340365 -261.70239258 155.51123047 C-260.68907211 152.88017545 -259.65398431 150.26012875 -258.6015625 147.64453125 C-255.9419835 141.02610787 -253.36465934 134.37618698 -250.8046875 127.71875 C-250.52967407 127.00458923 -250.25466064 126.29042847 -249.97131348 125.55462646 C-246.33212708 116.08190876 -242.82827681 106.56893152 -239.4609375 96.99609375 C-239.11512634 96.01430649 -238.76931519 95.03251923 -238.4130249 94.02098083 C-236.72037425 89.20764434 -235.03983283 84.39050198 -233.37597656 79.56713867 C-225.94963914 58.21555478 -217.35186363 36.93401585 -202.5546875 19.53125 C-201.87921875 18.69980469 -201.20375 17.86835938 -200.5078125 17.01171875 C-192.08091648 7.04586831 -181.10907394 -0.48386638 -167.87890625 -1.84765625 C-159.94172568 -2.09494529 -153.53244036 -1.33394034 -146.5546875 2.53125 C-145.60529297 3.03978516 -145.60529297 3.03978516 -144.63671875 3.55859375 C-136.02354667 8.90142235 -131.57358811 18.06082928 -129.21875 27.61328125 C-124.02187255 58.2748582 -136.61514924 90.39743041 -145.54467773 119.26477051 C-146.61131998 122.7144055 -147.67417058 126.16519257 -148.73632812 129.61621094 C-151.72370449 139.31872527 -154.7134023 149.02047783 -157.72949219 158.71411133 C-160.81058795 168.61913659 -163.87425582 178.52417637 -166.76914978 188.4853363 C-168.46726698 194.30077648 -170.2866527 200.07451823 -172.12269592 205.84767151 C-175.30058102 215.8507225 -178.37607303 225.88524838 -181.45874023 235.91796875 C-182.4866624 239.26326896 -183.5157026 242.60822366 -184.54492188 245.953125 C-185.8912848 250.3290356 -187.23364918 254.70614647 -188.57373047 259.08398438 C-189.90638858 263.43395204 -191.25623491 267.77809931 -192.61767578 272.11914062 C-192.94441788 273.16966614 -193.27115997 274.22019165 -193.60780334 275.30255127 C-194.22494594 277.28668586 -194.84739091 279.26918188 -195.47605896 281.24969482 C-195.75023148 282.13570374 -196.02440399 283.02171265 -196.30688477 283.93457031 C-196.54883072 284.70488586 -196.79077667 285.47520142 -197.04005432 286.26885986 C-197.60503699 288.7525925 -197.64417299 290.99232036 -197.5546875 293.53125 C-182.07725442 288.74582458 -170.94509198 261.81170503 -163.63867188 248.484375 C-162.57586233 246.56940285 -161.48535304 244.6735817 -160.3828125 242.78125 C-144.49397214 215.39963516 -132.32159498 185.59297743 -119.90478516 156.50170898 C-117.3055221 150.44138389 -114.58593572 144.50240041 -111.58862305 138.62915039 C-110.34878468 136.11346418 -109.37745286 133.56616359 -108.4921875 130.90625 C-107.41812041 127.68899834 -106.17007717 124.71876364 -104.6171875 121.7109375 C-102.56016261 117.67481613 -101.05226061 113.5710971 -99.6171875 109.28125 C-97.53096358 103.19676139 -95.23691263 97.27032967 -92.703125 91.35546875 C-91.51998127 88.44590099 -90.52108532 85.51935206 -89.5546875 82.53125 C-86.8577582 74.2229678 -83.5164892 66.25163946 -79.50390625 58.49609375 C-78.47104008 56.35810328 -77.64032159 54.1910258 -76.8046875 51.96875 C-72.53077303 41.09121866 -66.64873395 30.80342585 -59.5546875 21.53125 C-58.87792969 20.62761719 -58.20117188 19.72398437 -57.50390625 18.79296875 C-43.37966575 0.6547345 -22.5291655 -11.29596042 0 0 Z M-202.23828125 28.96875 C-218.21368388 51.09326834 -226.54469315 78.62562356 -234.77978516 104.31567383 C-236.62510919 110.01446865 -238.75523755 115.50630047 -241.09692383 121.01831055 C-242.8464711 125.23439424 -244.49352316 129.48468141 -246.12890625 133.74609375 C-246.45325653 134.59080734 -246.77760681 135.43552094 -247.11178589 136.30583191 C-247.79792095 138.09414464 -248.48372258 139.88258532 -249.16921997 141.67114258 C-258.7457596 166.64058258 -268.6613905 191.47071792 -278.66018677 216.27352905 C-279.75422746 218.98770015 -280.84601107 221.70277066 -281.9375 224.41796875 C-282.26718277 225.23390503 -282.59686554 226.04984131 -282.9365387 226.89050293 C-285.05967271 232.17882658 -286.97938495 237.48112813 -288.66796875 242.92578125 C-291.23042737 250.45512001 -294.85500531 257.65492365 -298.15039062 264.88476562 C-300.44496424 269.95308528 -302.60669364 275.05252802 -304.63867188 280.23193359 C-306.43932338 284.75179924 -308.44191113 289.1490081 -310.5546875 293.53125 C-310.88758789 294.22524902 -311.22048828 294.91924805 -311.56347656 295.63427734 C-317.16245954 307.16545819 -323.57950421 318.00311589 -330.6796875 328.65625 C-331.05274017 329.21884521 -331.42579285 329.78144043 -331.81015015 330.36108398 C-336.97670639 338.12234785 -342.52839179 345.42020698 -348.5546875 352.53125 C-349.32772217 353.45043213 -350.10075684 354.36961426 -350.8972168 355.31665039 C-357.82398735 363.4655548 -365.30129914 369.30333144 -375.5546875 372.53125 C-375.2246875 373.52125 -374.8946875 374.51125 -374.5546875 375.53125 C-373.8946875 375.53125 -373.2346875 375.53125 -372.5546875 375.53125 C-372.5546875 376.52125 -372.5546875 377.51125 -372.5546875 378.53125 C-380.10641365 379.1504252 -383.93161832 375.06902751 -389.5546875 370.53125 C-390.32167969 369.94214844 -391.08867187 369.35304688 -391.87890625 368.74609375 C-411.76052493 352.50527419 -422.42450546 324.98510544 -432.2421875 302.03125 C-445.65358336 270.88577697 -467.04341177 244.29597103 -499.1796875 231.21875 C-514.02627486 225.48248444 -531.54084406 223.66116952 -546.78515625 229.19921875 C-554.64674326 232.98032054 -562.15787261 239.30738238 -565.5546875 247.53125 C-566.66784507 256.97140444 -564.29279194 263.7683733 -558.54296875 271.1875 C-556.5512266 273.53532964 -554.46970587 275.77975067 -552.35449219 278.01635742 C-534.73966428 296.65510963 -522.49571268 318.83755303 -515.4765625 343.50390625 C-514.55589189 346.66628926 -514.55589189 346.66628926 -513.12524414 350.19018555 C-511.53794 354.40177455 -510.46560449 358.62439969 -509.50390625 363.015625 C-509.32461075 363.81677231 -509.14531525 364.61791962 -508.96058655 365.44334412 C-508.38011308 368.05435399 -507.81025003 370.66751374 -507.2421875 373.28125 C-507.04459839 374.18130768 -506.84700928 375.08136536 -506.64343262 376.00869751 C-503.83098206 388.85939607 -501.38587981 401.73054575 -499.3046875 414.71875 C-488.42035609 482.21699216 -454.14802339 562.03005544 -403.77734375 610.18359375 C-401.5546875 612.53125 -401.5546875 612.53125 -400.5546875 615.53125 C-407.53700311 614.36753073 -410.92491056 610.7021697 -415.5546875 605.53125 C-420.27362171 619.68805263 -410.05191973 643.85795804 -403.8984375 657.09375 C-400.23427139 664.28883982 -395.83457872 670.44612441 -390.5546875 676.53125 C-389.61496094 677.67013672 -389.61496094 677.67013672 -388.65625 678.83203125 C-370.73312584 700.01058 -342.33739009 715.95489097 -316.52734375 725.39453125 C-313.81442944 726.43192687 -311.27925433 727.61689823 -308.6796875 728.90625 C-282.57229592 740.92093961 -251.62596362 745.97710562 -223.0546875 745.96875 C-221.88046738 745.97035126 -221.88046738 745.97035126 -220.68252563 745.97198486 C-207.15927183 745.94550408 -194.5166457 744.62879598 -181.5546875 740.53125 C-180.47670898 740.19432129 -180.47670898 740.19432129 -179.37695312 739.85058594 C-158.52063576 733.04702942 -138.70789256 716.76105759 -126.5546875 698.53125 C-127.4003125 698.840625 -128.2459375 699.15 -129.1171875 699.46875 C-133.79096355 700.91337169 -137.83327844 702.10505302 -142.5546875 700.53125 C-138.00325559 698.20521109 -133.44662943 695.91251698 -128.7734375 693.83984375 C-112.82376487 686.70546923 -98.22207787 677.40573886 -84.5546875 666.53125 C-83.62398437 665.79261719 -82.69328125 665.05398438 -81.734375 664.29296875 C-76.34976891 659.9507864 -71.14006444 655.44796308 -66.03125 650.78515625 C-64.35216545 649.2570304 -62.65887927 647.74439142 -60.953125 646.24609375 C-56.41546554 642.24993746 -52.19580849 638.2156509 -48.3046875 633.5859375 C-47.1113452 632.18482578 -45.87982267 630.81556673 -44.6171875 629.4765625 C-31.40323751 615.43674064 -21.09090312 599.20357025 -11.5546875 582.53125 C-10.9057251 581.41266602 -10.9057251 581.41266602 -10.24365234 580.27148438 C0.11958125 562.38764062 8.57869697 543.62216997 16.8828125 524.71875 C30.72265273 493.2279224 44.61830918 462.63275746 65.98242188 435.40039062 C67.58668876 433.35061304 69.18068985 431.2931151 70.7734375 429.234375 C75.79607593 422.7482557 80.82654495 416.27266239 85.98779297 409.89599609 C103.53976553 388.19270272 119.58162945 365.14752498 134.4453125 341.53125 C134.95126953 340.73041992 135.45722656 339.92958984 135.97851562 339.10449219 C177.215572 276.7975798 177.215572 276.7975798 190.4453125 205.53125 C188.9793946 199.55604118 186.14364157 195.52482971 181.4453125 191.53125 C180.48625 190.6959375 180.48625 190.6959375 179.5078125 189.84375 C173.25208881 185.86283492 166.2889575 185.62358228 159.15234375 186.9609375 C142.49385462 191.73735385 131.71843263 207.04802806 122.9453125 220.96875 C122.17936768 222.18050903 122.17936768 222.18050903 121.39794922 223.41674805 C117.22628843 230.10261878 113.37625433 236.94478267 109.5703125 243.84375 C103.0018881 255.72890926 95.93422817 267.20576454 88.4453125 278.53125 C87.61966797 279.78010986 87.61966797 279.78010986 86.77734375 281.05419922 C76.49463157 296.5179573 65.37453059 311.29845877 53.4453125 325.53125 C52.61515625 326.54703125 51.785 327.5628125 50.9296875 328.609375 C37.62565471 344.70035276 22.86564842 359.91769272 5.4453125 371.53125 C5.4453125 372.52125 5.4453125 373.51125 5.4453125 374.53125 C7.49567627 376.15698222 9.5176954 377.5953281 11.6953125 379.03125 C22.8196111 386.7003491 36.99454395 397.17894436 41.4453125 410.53125 C37.26591112 406.98957744 33.27478217 403.38658318 29.5078125 399.40625 C19.56044331 389.35597699 7.52907795 381.16408712 -4.49658203 373.79736328 C-6.13394455 372.79008427 -7.76344432 371.7700267 -9.39013672 370.74560547 C-17.14591352 365.8954646 -25.04108515 361.46867679 -33.1796875 357.28125 C-33.79431854 356.96375793 -34.40894958 356.64626587 -35.04220581 356.31915283 C-51.33926997 347.91931565 -68.08964398 340.59037761 -85.03125 333.58862305 C-87.03303755 332.74983223 -89.0163098 331.86687623 -90.9921875 330.96875 C-94.10729887 329.71177524 -97.16494267 328.69215452 -100.375 327.71484375 C-101.53410889 327.36139893 -102.69321777 327.0079541 -103.88745117 326.64379883 C-105.09763916 326.27665771 -106.30782715 325.9095166 -107.5546875 325.53125 C-108.71524658 325.17764404 -109.87580566 324.82403809 -111.0715332 324.4597168 C-150.03232491 312.61329423 -188.29864586 304.02987748 -228.8046875 299.34375 C-229.53209137 299.25898407 -230.25949524 299.17421814 -231.00894165 299.08688354 C-244.13602227 297.56823679 -257.26115514 296.31747171 -270.4921875 296.46875 C-271.28302734 296.47326172 -272.07386719 296.47777344 -272.88867188 296.48242188 C-274.77737919 296.49386859 -276.66604586 296.51177947 -278.5546875 296.53125 C-278.2246875 295.54125 -277.8946875 294.55125 -277.5546875 293.53125 C-255.14779122 293.03887398 -233.52907876 293.73733354 -211.35913086 297.1640625 C-208.36505922 297.61779839 -208.36505922 297.61779839 -204.5546875 297.53125 C-204.5753125 296.87125 -204.5959375 296.21125 -204.6171875 295.53125 C-204.40292183 285.24649787 -201.02467624 276.3503576 -197.671875 266.7265625 C-195.74138454 261.16929872 -194.06094677 255.57485787 -192.4921875 249.90625 C-190.28323934 241.98203946 -187.88503534 234.13932971 -185.36645508 226.30834961 C-181.71476564 214.94984524 -178.20351824 203.54817204 -174.67675781 192.15039062 C-173.6483127 188.83322997 -172.61460633 185.51778186 -171.578125 182.203125 C-161.4903013 149.9082499 -151.43558254 117.57555727 -142.1796875 85.03125 C-141.84130859 83.8558667 -141.50292969 82.6804834 -141.15429688 81.46948242 C-137.68996709 69.08486506 -134.98181952 56.70066416 -135.1796875 43.78125 C-135.18983887 42.79825928 -135.19999023 41.81526855 -135.21044922 40.80249023 C-135.44521276 29.81865044 -136.75149503 20.73155151 -144.5546875 12.53125 C-150.92990511 6.48296662 -157.60999023 4.86012112 -166.21801758 4.92114258 C-181.96461883 5.58719993 -193.2289221 17.13997559 -202.23828125 28.96875 Z " fill="#FBC1A0" transform="translate(831.5546875,254.46875)"/>
<path d="M0 0 C8.97647608 5.62105211 14.00763323 14.58917081 16.8203125 24.71875 C21.14923383 49.97079112 11.89565356 76.26711291 4.26171875 99.98486328 C3.43975143 102.5485951 2.62849555 105.11548578 1.8203125 107.68359375 C-4.74068909 128.50363392 -11.71508109 149.17858588 -18.8828125 169.796875 C-22.00986802 178.83601987 -24.97018922 187.92000286 -27.77954102 197.06298828 C-29.63325537 203.00363593 -31.81686145 208.69790121 -34.25805664 214.42114258 C-36.06054214 218.74459632 -37.67023003 223.13228702 -39.29516602 227.52490234 C-44.68243033 242.0680288 -50.71014506 256.22462314 -57.12890625 270.34716797 C-58.50757821 273.42604464 -59.83792809 276.52047873 -61.1484375 279.62890625 C-66.28267621 291.79556323 -72.00100523 303.38463618 -78.59008789 314.83325195 C-79.27954355 316.0469103 -79.93045746 317.28278993 -80.5546875 318.53125 C-69.44197136 307.8772267 -59.06010827 297.179388 -50.08300781 284.65380859 C-48.52213929 282.48604646 -46.92908047 280.34532 -45.328125 278.20703125 C-37.04418178 267.06122732 -29.70099076 255.43074175 -22.5546875 243.53125 C-22.12091797 242.81678711 -21.68714844 242.10232422 -21.24023438 241.36621094 C-13.15350299 228.04425013 -5.8510464 214.29712459 1.4453125 200.53125 C2.32896484 198.87681885 2.32896484 198.87681885 3.23046875 197.18896484 C12.3190108 180.1429548 20.62695266 162.82408387 28.57299805 145.21850586 C35.50341535 129.94378055 42.84768219 114.64215232 53.4453125 101.53125 C54.11820313 100.68304688 54.79109375 99.83484375 55.484375 98.9609375 C64.05985757 88.76390914 75.85693227 79.71692799 89.4453125 78.1953125 C100.14184555 77.84058054 108.06110938 80.27386363 116.18359375 87.3125 C125.58492129 96.53521855 127.51485512 107.46363035 127.8203125 120.34375 C127.61937014 137.70433272 123.37731398 157.11622826 115.4453125 172.53125 C114.67006141 174.80773982 113.94020799 177.10022386 113.2578125 179.40625 C112.91363281 180.55867187 112.56945312 181.71109375 112.21484375 182.8984375 C111.96089844 183.76726562 111.70695313 184.63609375 111.4453125 185.53125 C110.7853125 185.53125 110.1253125 185.53125 109.4453125 185.53125 C109.3525 186.954375 109.3525 186.954375 109.2578125 188.40625 C108.65584551 192.65393253 106.81752493 195.91865738 104.828125 199.67578125 C103.30666897 202.81754497 102.18840836 205.97509237 101.0703125 209.28125 C98.8923897 215.6013614 96.17778063 221.36744795 93.09375 227.27734375 C91.69762933 230.03319331 90.47097287 232.81018653 89.26330566 235.65104675 C87.94982632 238.67015281 86.51376647 241.62950581 85.07421875 244.58984375 C84.75586563 245.24746704 84.43751251 245.90509033 84.10951233 246.5826416 C83.07760461 248.71231784 82.04302066 250.84067628 81.0078125 252.96875 C80.65249451 253.69990021 80.29717651 254.43105042 79.93109131 255.18435669 C77.44264048 260.30332191 74.946947 265.41871525 72.4453125 270.53125 C72.14570618 271.14355469 71.84609985 271.75585938 71.53741455 272.38671875 C60.34004888 295.24757318 48.40681126 316.91027083 33.4453125 337.53125 C41.95016295 330.98563211 48.37467005 322.5138458 54.79296875 314 C56.90212499 311.20596563 59.09735228 308.49044469 61.3046875 305.7734375 C65.34607078 300.73554228 69.02718054 295.5117311 72.6328125 290.15625 C73.27573242 289.20580811 73.91865234 288.25536621 74.58105469 287.27612305 C76.54338849 284.36616445 78.49648018 281.45026513 80.4453125 278.53125 C81.03070801 277.6551709 81.61610352 276.7790918 82.21923828 275.87646484 C90.11017583 264.02077914 97.41843971 251.91494299 104.4453125 239.53125 C124.18985541 204.8675478 124.18985541 204.8675478 136.4453125 193.53125 C137.30189453 192.70173828 137.30189453 192.70173828 138.17578125 191.85546875 C147.46676424 183.19501155 156.84981265 180.02606471 169.3515625 180.25390625 C176.75971247 180.59542876 183.49975673 183.43225269 188.83984375 188.6328125 C199.23287403 200.92238115 197.3253767 215.25965856 196.140625 230.43359375 C191.24977874 262.67555718 170.09877026 296.14801545 153.4453125 323.53125 C152.89101563 324.44729004 152.33671875 325.36333008 151.765625 326.30712891 C131.99092184 358.91101889 110.08459833 390.62174132 85.88452148 420.11010742 C73.23252274 435.53821635 61.40503201 451.21820066 51.4453125 468.53125 C51.02975098 469.2442627 50.61418945 469.95727539 50.18603516 470.69189453 C40.37081394 487.58632014 32.21691227 505.27031804 24.49169922 523.19970703 C15.03938254 545.10338611 5.49154373 566.90368698 -6.5546875 587.53125 C-7.02890137 588.3464209 -7.50311523 589.1615918 -7.99169922 590.00146484 C-13.63742661 599.63783918 -19.60781324 608.77382257 -26.5546875 617.53125 C-27.22113281 618.38976562 -27.88757813 619.24828125 -28.57421875 620.1328125 C-32.65091443 625.32718214 -36.94468436 630.27506731 -41.39453125 635.15234375 C-43.35738683 637.31396952 -45.2743501 639.50651262 -47.1796875 641.71875 C-52.84050039 648.19940475 -59.02467398 653.94190844 -65.5546875 659.53125 C-66.47894531 660.34464844 -67.40320313 661.15804687 -68.35546875 661.99609375 C-76.97104148 669.51361674 -86.15260375 676.04080779 -95.5546875 682.53125 C-104.02910013 688.39328145 -112.10481579 694.36741176 -119.5546875 701.53125 C-120.26238281 702.21058594 -120.97007812 702.88992188 -121.69921875 703.58984375 C-124.87865898 706.70849162 -127.90931647 709.89750314 -130.8046875 713.28125 C-139.7713672 723.58382329 -148.68688602 731.74578719 -160.5546875 738.53125 C-161.54210937 739.09585938 -162.52953125 739.66046875 -163.546875 740.2421875 C-192.91846174 755.92295332 -229.62099742 755.40923613 -261.5546875 749.53125 C-262.37533691 749.38091309 -263.19598633 749.23057617 -264.04150391 749.07568359 C-297.49431791 742.62622215 -329.55261956 729.13804252 -358.5546875 711.53125 C-359.15458496 711.16821777 -359.75448242 710.80518555 -360.37255859 710.43115234 C-386.98383755 694.1005811 -409.60224028 670.34698297 -417.5546875 639.53125 C-419.03308996 632.50618568 -420.29083347 625.44414309 -421.42651367 618.35595703 C-423.1780766 607.54591724 -425.25219027 597.12408215 -431.5546875 587.96875 C-432.35524386 586.77546155 -433.15466209 585.581409 -433.953125 584.38671875 C-434.58686035 583.45158447 -434.58686035 583.45158447 -435.23339844 582.49755859 C-448.72572393 562.41862483 -460.79991613 541.40864319 -471.6171875 519.78125 C-471.92484039 519.1678476 -472.23249329 518.55444519 -472.54946899 517.92245483 C-476.88019917 509.2579339 -480.84164274 500.47695879 -484.5546875 491.53125 C-485.09452271 490.24226807 -485.09452271 490.24226807 -485.64526367 488.92724609 C-497.06241922 461.09704037 -504.23074721 432.23721677 -508.5546875 402.53125 C-510.55531582 388.65207195 -510.55531582 388.65207195 -513.87890625 375.046875 C-514.61146401 372.31989699 -515.02993808 369.63825997 -515.4296875 366.84375 C-517.03306078 356.56879958 -520.52314433 346.5571452 -524.54296875 336.9921875 C-525.27044832 335.2226426 -525.94985985 333.43305568 -526.59765625 331.6328125 C-533.79892122 311.72487863 -544.67571222 295.38820505 -559.27856445 280.23266602 C-563.88110972 275.40387287 -567.71612052 270.62062398 -570.5546875 264.53125 C-571.2353125 263.0771875 -571.2353125 263.0771875 -571.9296875 261.59375 C-573.81909586 252.33564905 -572.68428946 245.47737081 -567.5546875 237.53125 C-561.6173504 228.65167167 -551.59883359 223.56785231 -541.5546875 220.53125 C-517.76258153 216.30779924 -493.22538882 223.89413699 -473.5546875 237.53125 C-468.64444966 241.25594111 -464.07973097 245.35361869 -459.5546875 249.53125 C-458.73226562 250.27117187 -457.90984375 251.01109375 -457.0625 251.7734375 C-439.14114963 268.67435511 -429.01451971 291.7706316 -419.46188354 314.01428223 C-407.1223563 343.76140337 -407.1223563 343.76140337 -384.5546875 365.53125 C-376.31482311 366.46550972 -370.89314891 364.83563369 -364.375 359.87109375 C-358.29161726 354.74547542 -353.38498246 348.82334475 -348.5546875 342.53125 C-348.12929688 341.98082031 -347.70390625 341.43039062 -347.265625 340.86328125 C-335.60948578 325.69666735 -326.2805449 309.39716619 -317.55322266 292.41137695 C-316.73221601 290.86551578 -315.83654352 289.35954141 -314.921875 287.8671875 C-313.33198723 285.15075067 -312.2697271 282.42063575 -311.1796875 279.46875 C-308.43627553 272.17488825 -305.442595 265.00348055 -302.41235352 257.82519531 C-298.64095017 248.84077621 -295.10112536 239.77129158 -291.57226562 230.68945312 C-289.30493608 224.88318683 -286.97922841 219.13474189 -284.40649414 213.45727539 C-283.15717273 210.63242684 -282.10677255 207.74710009 -281.0546875 204.84375 C-277.55516969 195.3276847 -273.74371419 185.9348321 -269.95703125 176.53051758 C-267.14679773 169.54578715 -264.39185484 162.54340365 -261.70239258 155.51123047 C-260.68907211 152.88017545 -259.65398431 150.26012875 -258.6015625 147.64453125 C-255.9419835 141.02610787 -253.36465934 134.37618698 -250.8046875 127.71875 C-250.52967407 127.00458923 -250.25466064 126.29042847 -249.97131348 125.55462646 C-246.33212708 116.08190876 -242.82827681 106.56893152 -239.4609375 96.99609375 C-239.11512634 96.01430649 -238.76931519 95.03251923 -238.4130249 94.02098083 C-236.72037425 89.20764434 -235.03983283 84.39050198 -233.37597656 79.56713867 C-225.94963914 58.21555478 -217.35186363 36.93401585 -202.5546875 19.53125 C-201.87921875 18.69980469 -201.20375 17.86835938 -200.5078125 17.01171875 C-192.08091648 7.04586831 -181.10907394 -0.48386638 -167.87890625 -1.84765625 C-159.94172568 -2.09494529 -153.53244036 -1.33394034 -146.5546875 2.53125 C-145.60529297 3.03978516 -145.60529297 3.03978516 -144.63671875 3.55859375 C-136.02354667 8.90142235 -131.57358811 18.06082928 -129.21875 27.61328125 C-124.02187255 58.2748582 -136.61514924 90.39743041 -145.54467773 119.26477051 C-146.61131998 122.7144055 -147.67417058 126.16519257 -148.73632812 129.61621094 C-151.72370449 139.31872527 -154.7134023 149.02047783 -157.72949219 158.71411133 C-160.81058795 168.61913659 -163.87425582 178.52417637 -166.76914978 188.4853363 C-168.46726698 194.30077648 -170.2866527 200.07451823 -172.12269592 205.84767151 C-175.30058102 215.8507225 -178.37607303 225.88524838 -181.45874023 235.91796875 C-182.4866624 239.26326896 -183.5157026 242.60822366 -184.54492188 245.953125 C-185.8912848 250.3290356 -187.23364918 254.70614647 -188.57373047 259.08398438 C-189.90638858 263.43395204 -191.25623491 267.77809931 -192.61767578 272.11914062 C-192.94441788 273.16966614 -193.27115997 274.22019165 -193.60780334 275.30255127 C-194.22494594 277.28668586 -194.84739091 279.26918188 -195.47605896 281.24969482 C-195.75023148 282.13570374 -196.02440399 283.02171265 -196.30688477 283.93457031 C-196.54883072 284.70488586 -196.79077667 285.47520142 -197.04005432 286.26885986 C-197.60503699 288.7525925 -197.64417299 290.99232036 -197.5546875 293.53125 C-182.07725442 288.74582458 -170.94509198 261.81170503 -163.63867188 248.484375 C-162.57586233 246.56940285 -161.48535304 244.6735817 -160.3828125 242.78125 C-144.49397214 215.39963516 -132.32159498 185.59297743 -119.90478516 156.50170898 C-117.3055221 150.44138389 -114.58593572 144.50240041 -111.58862305 138.62915039 C-110.34878468 136.11346418 -109.37745286 133.56616359 -108.4921875 130.90625 C-107.41812041 127.68899834 -106.17007717 124.71876364 -104.6171875 121.7109375 C-102.56016261 117.67481613 -101.05226061 113.5710971 -99.6171875 109.28125 C-97.53096358 103.19676139 -95.23691263 97.27032967 -92.703125 91.35546875 C-91.51998127 88.44590099 -90.52108532 85.51935206 -89.5546875 82.53125 C-86.8577582 74.2229678 -83.5164892 66.25163946 -79.50390625 58.49609375 C-78.47104008 56.35810328 -77.64032159 54.1910258 -76.8046875 51.96875 C-72.53077303 41.09121866 -66.64873395 30.80342585 -59.5546875 21.53125 C-58.87792969 20.62761719 -58.20117188 19.72398437 -57.50390625 18.79296875 C-43.37966575 0.6547345 -22.5291655 -11.29596042 0 0 Z M-48.6171875 17.59375 C-65.95649569 38.30163545 -76.20830719 64.19833415 -84.84863281 89.49169922 C-87.94753444 98.44336732 -91.31230527 107.2516757 -95.34375 115.828125 C-96.69031263 118.8340003 -97.84378191 121.88195282 -98.9921875 124.96875 C-101.01181822 130.3207714 -103.40209255 135.34460612 -106.01171875 140.4296875 C-109.67590518 147.79516605 -112.84999508 155.38864161 -115.5546875 163.15625 C-116.90333127 166.98162962 -118.50189225 170.53197412 -120.359375 174.13671875 C-123.36287029 180.07457982 -126.05046257 186.10812659 -128.6796875 192.21875 C-171.32986992 289.95265292 -171.32986992 289.95265292 -194.5546875 299.53125 C-198.4921875 300.09375 -198.4921875 300.09375 -201.5546875 299.53125 C-204.6993136 294.81431084 -204.05026431 290.05586121 -203.5546875 284.53125 C-202.65385401 280.59326374 -201.33733301 276.87638185 -199.9296875 273.09375 C-199.18502803 270.98440147 -198.44420604 268.87369467 -197.70703125 266.76171875 C-197.15571533 265.19236572 -197.15571533 265.19236572 -196.59326172 263.59130859 C-195.06012222 259.07406118 -193.76157556 254.50336352 -192.4921875 249.90625 C-190.28374036 241.98190964 -187.8850286 234.13930875 -185.36645508 226.30834961 C-181.71476564 214.94984524 -178.20351824 203.54817204 -174.67675781 192.15039062 C-173.6483127 188.83322997 -172.61460633 185.51778186 -171.578125 182.203125 C-161.4903013 149.9082499 -151.43558254 117.57555727 -142.1796875 85.03125 C-141.84130859 83.8558667 -141.50292969 82.6804834 -141.15429688 81.46948242 C-137.68996709 69.08486506 -134.98181952 56.70066416 -135.1796875 43.78125 C-135.18983887 42.79825928 -135.19999023 41.81526855 -135.21044922 40.80249023 C-135.44521276 29.81865044 -136.75149503 20.73155151 -144.5546875 12.53125 C-150.92990511 6.48296662 -157.60999023 4.86012112 -166.21801758 4.92114258 C-178.06117482 5.42209017 -186.99495811 11.97687691 -194.93554688 20.2253418 C-215.99412719 43.28965499 -225.44459 75.19376086 -234.77978516 104.31567383 C-236.62510919 110.01446865 -238.75523755 115.50630047 -241.09692383 121.01831055 C-242.8464711 125.23439424 -244.49352316 129.48468141 -246.12890625 133.74609375 C-246.45325653 134.59080734 -246.77760681 135.43552094 -247.11178589 136.30583191 C-247.79792095 138.09414464 -248.48372258 139.88258532 -249.16921997 141.67114258 C-258.7457596 166.64058258 -268.6613905 191.47071792 -278.66018677 216.27352905 C-279.75422746 218.98770015 -280.84601107 221.70277066 -281.9375 224.41796875 C-282.26718277 225.23390503 -282.59686554 226.04984131 -282.9365387 226.89050293 C-285.05967271 232.17882658 -286.97938495 237.48112813 -288.66796875 242.92578125 C-291.23042737 250.45512001 -294.85500531 257.65492365 -298.15039062 264.88476562 C-300.44496424 269.95308528 -302.60669364 275.05252802 -304.63867188 280.23193359 C-306.43932338 284.75179924 -308.44191113 289.1490081 -310.5546875 293.53125 C-310.88758789 294.22524902 -311.22048828 294.91924805 -311.56347656 295.63427734 C-317.16245954 307.16545819 -323.57950421 318.00311589 -330.6796875 328.65625 C-331.05274017 329.21884521 -331.42579285 329.78144043 -331.81015015 330.36108398 C-336.97670639 338.12234785 -342.52839179 345.42020698 -348.5546875 352.53125 C-349.32772217 353.45043213 -350.10075684 354.36961426 -350.8972168 355.31665039 C-357.82398735 363.4655548 -365.30129914 369.30333144 -375.5546875 372.53125 C-375.2246875 373.52125 -374.8946875 374.51125 -374.5546875 375.53125 C-373.8946875 375.53125 -373.2346875 375.53125 -372.5546875 375.53125 C-372.5546875 376.52125 -372.5546875 377.51125 -372.5546875 378.53125 C-380.10641365 379.1504252 -383.93161832 375.06902751 -389.5546875 370.53125 C-390.32167969 369.94214844 -391.08867187 369.35304688 -391.87890625 368.74609375 C-411.76052493 352.50527419 -422.42450546 324.98510544 -432.2421875 302.03125 C-445.65358336 270.88577697 -467.04341177 244.29597103 -499.1796875 231.21875 C-514.02627486 225.48248444 -531.54084406 223.66116952 -546.78515625 229.19921875 C-554.64674326 232.98032054 -562.15787261 239.30738238 -565.5546875 247.53125 C-566.66784507 256.97140444 -564.29279194 263.7683733 -558.54296875 271.1875 C-556.5512266 273.53532964 -554.46970587 275.77975067 -552.35449219 278.01635742 C-534.73966428 296.65510963 -522.49571268 318.83755303 -515.4765625 343.50390625 C-514.55589189 346.66628926 -514.55589189 346.66628926 -513.12524414 350.19018555 C-511.53794 354.40177455 -510.46560449 358.62439969 -509.50390625 363.015625 C-509.32461075 363.81677231 -509.14531525 364.61791962 -508.96058655 365.44334412 C-508.38011308 368.05435399 -507.81025003 370.66751374 -507.2421875 373.28125 C-507.04459839 374.18130768 -506.84700928 375.08136536 -506.64343262 376.00869751 C-503.83098206 388.85939607 -501.38587981 401.73054575 -499.3046875 414.71875 C-488.42035609 482.21699216 -454.14802339 562.03005544 -403.77734375 610.18359375 C-401.5546875 612.53125 -401.5546875 612.53125 -400.5546875 615.53125 C-407.53700311 614.36753073 -410.92491056 610.7021697 -415.5546875 605.53125 C-420.27362171 619.68805263 -410.05191973 643.85795804 -403.8984375 657.09375 C-400.23427139 664.28883982 -395.83457872 670.44612441 -390.5546875 676.53125 C-389.61496094 677.67013672 -389.61496094 677.67013672 -388.65625 678.83203125 C-370.73312584 700.01058 -342.33739009 715.95489097 -316.52734375 725.39453125 C-313.81442944 726.43192687 -311.27925433 727.61689823 -308.6796875 728.90625 C-282.57229592 740.92093961 -251.62596362 745.97710562 -223.0546875 745.96875 C-221.88046738 745.97035126 -221.88046738 745.97035126 -220.68252563 745.97198486 C-207.15927183 745.94550408 -194.5166457 744.62879598 -181.5546875 740.53125 C-180.47670898 740.19432129 -180.47670898 740.19432129 -179.37695312 739.85058594 C-158.52063576 733.04702942 -138.70789256 716.76105759 -126.5546875 698.53125 C-127.4003125 698.840625 -128.2459375 699.15 -129.1171875 699.46875 C-133.79096355 700.91337169 -137.83327844 702.10505302 -142.5546875 700.53125 C-138.00325559 698.20521109 -133.44662943 695.91251698 -128.7734375 693.83984375 C-112.82376487 686.70546923 -98.22207787 677.40573886 -84.5546875 666.53125 C-83.62398437 665.79261719 -82.69328125 665.05398438 -81.734375 664.29296875 C-76.34976891 659.9507864 -71.14006444 655.44796308 -66.03125 650.78515625 C-64.35216545 649.2570304 -62.65887927 647.74439142 -60.953125 646.24609375 C-56.41546554 642.24993746 -52.19580849 638.2156509 -48.3046875 633.5859375 C-47.1113452 632.18482578 -45.87982267 630.81556673 -44.6171875 629.4765625 C-31.40323751 615.43674064 -21.09090312 599.20357025 -11.5546875 582.53125 C-10.9057251 581.41266602 -10.9057251 581.41266602 -10.24365234 580.27148438 C0.11958125 562.38764062 8.57869697 543.62216997 16.8828125 524.71875 C30.72265273 493.2279224 44.61830918 462.63275746 65.98242188 435.40039062 C67.58668876 433.35061304 69.18068985 431.2931151 70.7734375 429.234375 C75.79607593 422.7482557 80.82654495 416.27266239 85.98779297 409.89599609 C103.53976553 388.19270272 119.58162945 365.14752498 134.4453125 341.53125 C134.95126953 340.73041992 135.45722656 339.92958984 135.97851562 339.10449219 C177.215572 276.7975798 177.215572 276.7975798 190.4453125 205.53125 C188.9793946 199.55604118 186.14364157 195.52482971 181.4453125 191.53125 C180.48625 190.6959375 180.48625 190.6959375 179.5078125 189.84375 C173.25208881 185.86283492 166.2889575 185.62358228 159.15234375 186.9609375 C142.49385462 191.73735385 131.71843263 207.04802806 122.9453125 220.96875 C122.17936768 222.18050903 122.17936768 222.18050903 121.39794922 223.41674805 C117.22628843 230.10261878 113.37625433 236.94478267 109.5703125 243.84375 C103.0018881 255.72890926 95.93422817 267.20576454 88.4453125 278.53125 C87.61966797 279.78010986 87.61966797 279.78010986 86.77734375 281.05419922 C76.49463157 296.5179573 65.37453059 311.29845877 53.4453125 325.53125 C52.61515625 326.54703125 51.785 327.5628125 50.9296875 328.609375 C20.82595591 365.01927291 20.82595591 365.01927291 4.4453125 371.53125 C3.1253125 371.53125 1.8053125 371.53125 0.4453125 371.53125 C0.1153125 369.88125 -0.2146875 368.23125 -0.5546875 366.53125 C0.03828125 366.263125 0.63125 365.995 1.2421875 365.71875 C8.44469014 361.83654999 13.56338862 353.87607916 18.4453125 347.53125 C18.87972656 346.97324707 19.31414063 346.41524414 19.76171875 345.84033203 C33.52805515 328.11952923 44.99397368 309.36464876 55.4453125 289.53125 C56.43205482 287.67956127 57.41903421 285.82799885 58.40625 283.9765625 C69.25036351 263.52649202 79.20696679 242.66322802 88.48828125 221.46191406 C90.46065374 216.95934028 92.43018237 212.47946754 94.66015625 208.09765625 C96.14470501 205.1318072 97.36742661 202.28404388 98.4453125 199.15625 C100.905473 192.20653589 103.52735873 185.41107015 106.7578125 178.78125 C110.5436526 170.54354237 113.05406886 161.82133185 115.64941406 153.15234375 C116.32676547 150.92165519 117.04447568 148.71145822 117.78125 146.5 C120.38397298 137.86117478 120.84917014 129.6458627 120.9453125 120.65625 C120.96392334 119.51454346 120.98253418 118.37283691 121.00170898 117.1965332 C120.93627417 108.49243282 119.37570325 99.52634654 113.16015625 92.9140625 C105.84532586 87.01554323 98.26132029 84.49301173 88.8984375 84.95703125 C78.35701332 86.70996038 70.76729638 93.14855315 63.4453125 100.53125 C62.71957031 101.211875 61.99382813 101.8925 61.24609375 102.59375 C43.41626775 120.51960738 33.24045963 149.34402537 23.27368164 172.27685547 C19.83855706 180.08237918 15.79766325 187.55583031 11.76171875 195.06298828 C10.42870784 197.56238374 9.12075859 200.07336481 7.8203125 202.58984375 C-8.00038854 233.19178176 -24.93399309 263.59655359 -46.5546875 290.53125 C-47.43447266 291.67013672 -47.43447266 291.67013672 -48.33203125 292.83203125 C-54.0083901 300.11030732 -60.19357474 306.85383881 -66.5546875 313.53125 C-67.35374512 314.37333008 -67.35374512 314.37333008 -68.16894531 315.23242188 C-69.74535041 316.88425762 -71.33459946 318.52246575 -72.9296875 320.15625 C-73.4050293 320.65302246 -73.88037109 321.14979492 -74.37011719 321.66162109 C-78.14473308 325.47189641 -81.92376809 328.2973905 -87.3671875 328.78125 C-89.5546875 328.53125 -89.5546875 328.53125 -90.5546875 327.53125 C-90.9344478 323.01843173 -90.45122501 320.72958844 -87.8046875 317.09375 C-75.76416477 299.00888486 -67.56335814 278.78816185 -59.21334839 258.82746887 C-57.43275953 254.5797831 -55.6050308 250.356303 -53.73970032 246.14517212 C-50.90788806 239.75128111 -48.26203601 233.35801802 -46.0546875 226.71875 C-45.47794281 225.02947603 -44.89977788 223.34068639 -44.3203125 221.65234375 C-43.8881543 220.38946533 -43.8881543 220.38946533 -43.44726562 219.10107422 C-41.95585617 214.80715303 -40.38302056 210.54384298 -38.8046875 206.28125 C-38.52302734 205.51965576 -38.24136719 204.75806152 -37.95117188 203.97338867 C-36.93726086 201.23806729 -35.92313953 198.50294439 -34.88883972 195.7752533 C-33.07681622 190.9823256 -31.36016914 186.16358973 -29.69921875 181.31640625 C-29.4363356 180.55127213 -29.17345245 179.786138 -28.90260315 178.99781799 C-28.05582806 176.53035271 -27.21127765 174.06213496 -26.3671875 171.59375 C-26.07877991 170.75164978 -25.79037231 169.90954956 -25.4932251 169.04193115 C-21.53183808 157.46678522 -17.65720828 145.87209835 -14.00317383 134.19555664 C-12.34277576 128.90136354 -10.55136558 123.70842896 -8.5546875 118.53125 C-1.69826403 100.70924515 3.01214722 82.08486764 7.4453125 63.53125 C7.744375 62.4278125 8.0434375 61.324375 8.3515625 60.1875 C10.16023409 53.01980147 10.75044582 46.142481 10.8203125 38.78125 C10.83416992 37.91798096 10.84802734 37.05471191 10.86230469 36.1652832 C10.78989974 26.19150193 8.10739266 17.10655912 1.4453125 9.53125 C-15.39946007 -4.25389322 -35.13894331 3.21876779 -48.6171875 17.59375 Z " fill="#773C1D" transform="translate(831.5546875,254.46875)"/>
<path d="M0 0 C22.36965034 -0.49155756 43.95093507 0.19548573 66.08203125 3.6328125 C68.96761502 4.08107913 68.96761502 4.08107913 71.76171875 3.8671875 C72.50035156 3.91101563 73.23898437 3.95484375 74 4 C74.99 5.485 74.99 5.485 76 7 C79.71640139 7.27028374 82.457201 7.180933 86 6 C86.99 6.495 86.99 6.495 88 7 C89.40319226 7.24023315 90.81373407 7.43842037 92.2265625 7.61328125 C93.08475586 7.72446289 93.94294922 7.83564453 94.82714844 7.95019531 C96.21208496 8.12953613 96.21208496 8.12953613 97.625 8.3125 C106.9753219 9.59773506 115.90384059 11.4599046 125 14 C125.9389209 14.2582959 126.8778418 14.5165918 127.84521484 14.78271484 C135.24095096 16.81750208 142.62340252 18.89697939 150 21 C150.82242188 21.23364258 151.64484375 21.46728516 152.4921875 21.70800781 C157.34323625 23.09072456 162.17680823 24.52317023 167 26 C167.79647949 26.24105469 168.59295898 26.48210938 169.41357422 26.73046875 C171.9061039 27.4916055 174.39103828 28.27389738 176.875 29.0625 C177.64320068 29.29590088 178.41140137 29.52930176 179.20288086 29.76977539 C184.69588004 31.55368342 184.69588004 31.55368342 186.4453125 34.12109375 C188.00904421 36.45420551 188.00904421 36.45420551 191.86328125 36.4296875 C192.66330566 36.48737305 193.46333008 36.54505859 194.28759766 36.60449219 C199.88673172 37.42092758 205.01129516 39.92613726 210.1875 42.125 C210.80928131 42.38610565 211.43106262 42.6472113 212.07168579 42.91622925 C232.35919748 51.4509445 252.29202971 61.11565779 270.82421875 73.0234375 C273.85601212 75.08134342 273.85601212 75.08134342 277 76 C277.33 76.99 277.66 77.98 278 79 C279.65 79 281.3 79 283 79 C283 79.99 283 80.98 283 82 C283.71542969 82.24363281 284.43085937 82.48726562 285.16796875 82.73828125 C288.37409196 84.16666442 290.62819294 85.93050666 293.3125 88.1875 C294.27414062 88.99574219 295.23578125 89.80398438 296.2265625 90.63671875 C297.59941406 91.80654297 297.59941406 91.80654297 299 93 C300.09441406 93.90685547 300.09441406 93.90685547 301.2109375 94.83203125 C308.04090367 100.59565883 314.54192058 107.19836101 319 115 C319 115.99 319 116.98 319 118 C314.85703508 116.3959542 312.28763125 113.34440648 309.3125 110.1875 C298.61303351 99.18727008 286.11557947 90.26490962 273.05810547 82.26611328 C271.42074295 81.25883427 269.79124318 80.2387767 268.16455078 79.21435547 C260.40877398 74.3642146 252.51360235 69.93742679 244.375 65.75 C243.76036896 65.43250793 243.14573792 65.11501587 242.51248169 64.78790283 C226.21541753 56.38806565 209.46504352 49.05912761 192.5234375 42.05737305 C190.52164995 41.21858223 188.5383777 40.33562623 186.5625 39.4375 C183.44738863 38.18052524 180.38974483 37.16090452 177.1796875 36.18359375 C176.02057861 35.83014893 174.86146973 35.4767041 173.66723633 35.11254883 C172.45704834 34.74540771 171.24686035 34.3782666 170 34 C168.83944092 33.64639404 167.67888184 33.29278809 166.4831543 32.9284668 C111.37136214 16.17116927 56.52277772 6.79297411 -1 4 C-0.67 2.68 -0.34 1.36 0 0 Z " fill="#D8875F" transform="translate(554,547)"/>
<path d="M0 0 C6.30799506 0.45663937 11.38111036 3.42318098 16.875 6.3125 C18.4060437 7.11675415 18.4060437 7.11675415 19.96801758 7.93725586 C36.63149645 16.90748039 52.1314431 29.17797733 64 44 C64.68320312 44.82242188 65.36640625 45.64484375 66.0703125 46.4921875 C70.86771686 52.52655327 74.70725602 58.76271908 78.3125 65.5625 C78.72089111 66.32925049 79.12928223 67.09600098 79.55004883 67.88598633 C96.18624516 100.16369374 95.13645529 136.89743005 85 171 C76.63773505 195.59183213 62.95151009 215.53115532 45 234 C44.01 233.67 43.02 233.34 42 233 C43.63260838 229.27087267 46.04305514 226.28062975 48.5625 223.125 C61.3435297 206.75155241 71.45752599 188.73678024 78 169 C78.23203125 168.31437988 78.4640625 167.62875977 78.703125 166.92236328 C89.16884708 135.57607207 87.45117033 100.82441013 73.91015625 70.66015625 C65.44325142 53.75900133 52.67400165 37.88298117 38 26 C37.49758789 25.58717773 36.99517578 25.17435547 36.47753906 24.74902344 C25.31845251 15.69441326 12.83568313 9.35176448 0 3 C0 2.01 0 1.02 0 0 Z " fill="#D88860" transform="translate(508,626)"/>
<path d="M0 0 C5.74294902 -0.23864802 10.79893121 0.59338288 16.375 1.9375 C17.28056641 2.15567383 18.18613281 2.37384766 19.11914062 2.59863281 C59.26728448 12.73801789 97.32176277 32.69174065 131.36083984 55.88574219 C133.83310185 57.56632065 136.32310416 59.21994339 138.8125 60.875 C142.28896758 63.18797238 145.7583941 65.51068238 149.21875 67.84765625 C179.61494898 88.4409159 179.61494898 88.4409159 213.40234375 102.1875 C216.36101935 103.11292034 219.15153359 104.27766959 222 105.5 C227.24063513 107.74695625 232.50145038 109.50371327 238 111 C237.67 111.99 237.34 112.98 237 114 C230.05949652 113.5396323 223.75437561 112.33225815 217.125 110.25 C216.24787354 109.97905518 215.37074707 109.70811035 214.46704102 109.42895508 C207.78975418 107.32861682 201.35865967 104.93597373 195 102 C194.31647461 101.69223633 193.63294922 101.38447266 192.92871094 101.06738281 C175.38414112 93.15542049 159.32540781 83.54244456 143.515625 72.5859375 C98.99597656 41.75483496 52.71096864 16.81896298 0 3 C0 2.01 0 1.02 0 0 Z " fill="#D9885F" transform="translate(544,610)"/>
<path d="M0 0 C0.33 0 0.66 0 1 0 C1.13535156 0.75023437 1.27070313 1.50046875 1.41015625 2.2734375 C4.53919896 17.15044295 14.78487677 26.40040239 25 37 C23.35 38.32 21.7 39.64 20 41 C14.75711408 36.72009313 10.30356764 32.2175997 6 27 C5.37609375 26.25234375 4.7521875 25.5046875 4.109375 24.734375 C-2.177645 16.96805618 -4.54315981 10.99816387 -4 1 C-3.01 2.485 -3.01 2.485 -2 4 C-1.34 2.68 -0.68 1.36 0 0 Z " fill="#6E3416" transform="translate(264,505)"/>
<path d="M0 0 C1.98 0 3.96 0 6 0 C6.70123016 3.5807878 7.3835758 7.1649217 8.0625 10.75 C8.26166016 11.76578125 8.46082031 12.7815625 8.66601562 13.828125 C8.84970703 14.8078125 9.03339844 15.7875 9.22265625 16.796875 C9.39547119 17.69760742 9.56828613 18.59833984 9.74633789 19.52636719 C10.00532858 22.05196259 9.76182991 23.60382757 9 26 C8.71125 27.175625 8.4225 28.35125 8.125 29.5625 C7.04635992 32.8583447 6.4491631 33.79842989 4 36 C3.32394521 31.50135882 2.66084619 27.00089838 2 22.5 C1.80921875 21.2315625 1.6184375 19.963125 1.421875 18.65625 C0.50583552 12.37483644 -0.25653442 6.34922684 0 0 Z " fill="#7E4424" transform="translate(322,640)"/>
<path d="M0 0 C5.08625949 -0.02492888 10.17248252 -0.04296724 15.25878906 -0.05493164 C16.98503235 -0.05992544 18.71127149 -0.06672279 20.4375 -0.07543945 C29.35670477 -0.11931286 38.13774953 -0.15555011 47 1 C44.27033781 4.00262841 41.86111221 5.87663006 37.72021484 6.15112305 C36.89215332 6.10511963 36.0640918 6.05911621 35.2109375 6.01171875 C34.27709229 5.96523193 33.34324707 5.91874512 32.38110352 5.87084961 C31.38908936 5.81034424 30.3970752 5.74983887 29.375 5.6875 C27.85120728 5.60737671 27.85120728 5.60737671 26.29663086 5.52563477 C23.19710284 5.36051088 20.09864562 5.18084127 17 5 C15.16021325 4.89998751 13.32037219 4.80096725 11.48046875 4.703125 C7.31960903 4.48000644 3.15968103 4.24407617 -1 4 C-0.67 2.68 -0.34 1.36 0 0 Z " fill="#E1956D" transform="translate(554,547)"/>
<path d="M0 0 C15.06930834 -0.75950249 27.0819686 -0.97234905 39.8671875 8.015625 C40.57101562 8.67046875 41.27484375 9.3253125 42 10 C42 10.99 42 11.98 42 13 C36.7443949 12.57386986 32.63166903 10.55399576 27.9765625 8.25390625 C21.38567583 5.47743037 15.06589046 4.66890186 8 4.375 C6.83791016 4.31699219 6.83791016 4.31699219 5.65234375 4.2578125 C3.76856585 4.16478643 1.88431744 4.08136825 0 4 C0 2.68 0 1.36 0 0 Z " fill="#DA8A61" transform="translate(579,459)"/>
<path d="M0 0 C1.99968134 -0.05486931 3.99981913 -0.09317894 6 -0.125 C7.670625 -0.15980469 7.670625 -0.15980469 9.375 -0.1953125 C16.83150552 0.20643888 22.7714675 2.57124626 29.3125 5.9375 C30.01439453 6.28490234 30.71628906 6.63230469 31.43945312 6.99023438 C37.65645822 10.13725983 37.65645822 10.13725983 40 13 C40 13.99 40 14.98 40 16 C35.92640264 15.38933275 32.82173584 14.03976122 29.1875 12.125 C19.41588428 7.1680396 10.8522766 5.20109832 0 4 C0 2.68 0 1.36 0 0 Z " fill="#DA8A61" transform="translate(714,469)"/>
<path d="M0 0 C-13.11087332 6.62269844 -26.40133863 8.48127455 -41 8 C-41 6.68 -41 5.36 -41 4 C-39.92298828 3.85304688 -39.92298828 3.85304688 -38.82421875 3.703125 C-33.56580275 2.94350326 -28.39448915 2.12242186 -23.22265625 0.90625 C-22.39999268 0.71643555 -21.5773291 0.52662109 -20.72973633 0.33105469 C-19.11240852 -0.04791944 -17.49861536 -0.44241166 -15.8894043 -0.85449219 C-10.09427183 -2.19875234 -5.67792911 -1.72395827 0 0 Z " fill="#D48359" transform="translate(695,957)"/>
<path d="M0 0 C10.93650177 -0.98625767 21.37655983 2.10124786 30 9 C31.70496537 10.62746694 33.37897032 12.28891311 35 14 C35.66 14.66 36.32 15.32 37 16 C37 16.99 37 17.98 37 19 C33.43386386 18.38262791 31.30064772 16.91976598 28.4375 14.75 C19.62253361 8.45175169 10.53804153 5.26209268 0 3 C0 2.01 0 1.02 0 0 Z " fill="#D98961" transform="translate(824,518)"/>
<path d="M0 0 C13.49282161 -0.68145564 26.08351048 -0.0970746 37 9 C37.495 10.485 37.495 10.485 38 12 C33.33228138 11.68174646 29.97655206 10.58079733 25.75 8.5625 C17.53187854 4.93562497 8.85479 4.62057629 0 4 C0 2.68 0 1.36 0 0 Z " fill="#D8885E" transform="translate(611,373)"/>
<path d="M0 0 C13.15293305 -0.52533904 23.35895608 0.48377983 34.234375 8.28125 C34.81703125 8.8484375 35.3996875 9.415625 36 10 C36 10.99 36 11.98 36 13 C32.35623748 12.63562375 29.553507 11.86719422 26.375 10.125 C18.24896775 5.86038384 9.06254855 4.5814467 0 4 C0 2.68 0 1.36 0 0 Z " fill="#D98961" transform="translate(755,372)"/>
<path d="M0 0 C0.98484375 0.86109375 1.9696875 1.7221875 2.984375 2.609375 C6.94417783 6.00292204 11.06441172 9.14204452 15.25 12.25 C16.30960937 13.04277344 16.30960937 13.04277344 17.390625 13.8515625 C20.22668601 15.9678656 23.05451254 18.03634169 26 20 C25.67 20.99 25.34 21.98 25 23 C14.56025879 21.50326291 2.63096237 11.79868349 -3.8125 3.73046875 C-4.204375 3.15941406 -4.59625 2.58835937 -5 2 C-3.35 2 -1.7 2 0 2 C0 1.34 0 0.68 0 0 Z " fill="#D9885F" transform="translate(431,868)"/>
<path d="M0 0 C10.73229507 -1.06143578 20.06564819 1.37955893 28.6640625 8.07421875 C30.65200071 9.9743505 32.44365569 11.73315068 34 14 C34 14.99 34 15.98 34 17 C30.40197119 16.38389918 28.25747072 14.87986779 25.375 12.6875 C17.49840445 7.05146096 9.49498432 4.53535917 0 3 C0 2.01 0 1.02 0 0 Z " fill="#DA8A62" transform="translate(868,438)"/>
<path d="M0 0 C2 3.75 2 3.75 2 6 C2.66 6 3.32 6 4 6 C4.9511481 11.10996116 4.93965954 15.21408182 3.9375 20.3125 C3.61072266 22.13201172 3.61072266 22.13201172 3.27734375 23.98828125 C2 27 2 27 -0.99609375 28.29296875 C-1.98738281 28.52628906 -2.97867188 28.75960938 -4 29 C-4.66 29.66 -5.32 30.32 -6 31 C-5.36055026 25.15836018 -4.32388956 19.53496466 -3 13.8125 C-2.64539585 12.25661006 -2.29121722 10.70062307 -1.9375 9.14453125 C-1.69193359 8.06872803 -1.69193359 8.06872803 -1.44140625 6.97119141 C-0.92266384 4.65463928 -0.44847541 2.33113783 0 0 Z " fill="#7C3E1E" transform="translate(695,310)"/>
<path d="M0 0 C10.751705 0.34682919 18.17155682 5.35957655 25.50390625 13.03125 C27.46316862 15.60949605 28 17.7795637 28 21 C24.29206442 20.45187039 23.01069123 19.16914498 20.75 16.25 C14.81129281 9.18911671 7.53081697 6.12913163 -1 3 C-0.67 2.01 -0.34 1.02 0 0 Z " fill="#DA8A61" transform="translate(906,579)"/>
<path d="M0 0 C0.62003906 0.3403125 1.24007813 0.680625 1.87890625 1.03125 C9.88746926 5.41439366 17.93921904 9.71397072 26 14 C26 14.99 26 15.98 26 17 C20.21290382 16.50137291 15.98547191 14.82031505 10.875 12.125 C9.84052734 11.59712891 9.84052734 11.59712891 8.78515625 11.05859375 C6.84452122 10.06044686 4.92111993 9.03509066 3 8 C2.01257813 7.48179687 1.02515625 6.96359375 0.0078125 6.4296875 C-0.65476562 5.95789063 -1.31734375 5.48609375 -2 5 C-2 4.01 -2 3.02 -2 2 C-1.34 2 -0.68 2 0 2 C0 1.34 0 0.68 0 0 Z " fill="#D5855C" transform="translate(459,631)"/>
<path d="M0 0 C9.02786063 -0.78503136 16.27998076 3.03764702 23.30859375 8.4375 C25.19625717 10.18129993 26.6447611 11.81172435 28 14 C28 15.32 28 16.64 28 18 C25.17593366 16.71300648 23.15830367 15.34014601 20.9375 13.1875 C15.06349615 8.00976816 7.43363221 5.20999877 0 3 C0 2.01 0 1.02 0 0 Z " fill="#D98A61" transform="translate(947,518)"/>
<path d="M0 0 C1.63001953 0.01353516 1.63001953 0.01353516 3.29296875 0.02734375 C4.12441406 0.03894531 4.95585938 0.05054688 5.8125 0.0625 C5.8125 1.0525 5.8125 2.0425 5.8125 3.0625 C3.5025 3.0625 1.1925 3.0625 -1.1875 3.0625 C-1.1875 4.0525 -1.1875 5.0425 -1.1875 6.0625 C0.7925 6.0625 2.7725 6.0625 4.8125 6.0625 C4.8125 6.3925 4.8125 6.7225 4.8125 7.0625 C4.05066406 7.09988281 3.28882813 7.13726562 2.50390625 7.17578125 C-4.17428001 7.60098412 -9.97068166 8.56635324 -16.1875 11.0625 C-16.1875 9.7425 -16.1875 8.4225 -16.1875 7.0625 C-17.1775 6.4025 -18.1675 5.7425 -19.1875 5.0625 C-17.5837669 4.41559078 -15.97949694 3.77001236 -14.375 3.125 C-13.03501953 2.58552734 -13.03501953 2.58552734 -11.66796875 2.03515625 C-7.52058115 0.40885781 -4.44848584 -0.04783318 0 0 Z " fill="#81492C" transform="translate(924.1875,332.9375)"/>
<path d="M0 0 C3.75446768 4.89713176 4.3310009 8.44881564 4.6875 14.5625 C4.73511475 15.3757373 4.78272949 16.18897461 4.83178711 17.02685547 C5.09644044 22.71035688 4.72041316 27.53515819 3 33 C2.67 31.68 2.34 30.36 2 29 C1.34 29 0.68 29 0 29 C-3.79765206 21.40469588 -0.69063884 8.22600195 0 0 Z " fill="#6F3417" transform="translate(697,287)"/>
<path d="M0 0 C1.65 1.65 3.3 3.3 5 5 C3.02 8.63 1.04 12.26 -1 16 C-3.97 15.505 -3.97 15.505 -7 15 C-7.99 17.475 -7.99 17.475 -9 20 C-9.66 20 -10.32 20 -11 20 C-9.36047417 15.3606824 -6.93128948 11.36144142 -4.375 7.1875 C-3.95476563 6.49462891 -3.53453125 5.80175781 -3.1015625 5.08789062 C-2.0710533 3.38989252 -1.03598319 1.69466386 0 0 Z " fill="#7C4223" transform="translate(952,467)"/>
<path d="M0 0 C0.33 0.99 0.66 1.98 1 3 C1.99 3.33 2.98 3.66 4 4 C-10.28902193 22.29929239 -10.28902193 22.29929239 -17 27 C-15.4083944 23.58249152 -13.42591644 20.55572347 -11.3125 17.4375 C-7.44256741 11.68566235 -3.69481555 5.86551969 0 0 Z " fill="#EDE1D9" transform="translate(881,567)"/>
<path d="M0 0 C1.1446875 0.12375 1.1446875 0.12375 2.3125 0.25 C3.57205231 4.02865693 2.79337189 5.28411786 1.375 8.9375 C0.99472656 9.93136719 0.61445312 10.92523438 0.22265625 11.94921875 C-0.07769531 12.70847656 -0.37804687 13.46773438 -0.6875 14.25 C-1.3475 13.92 -2.0075 13.59 -2.6875 13.25 C-3.3475 13.91 -4.0075 14.57 -4.6875 15.25 C-6.8125 14.875 -6.8125 14.875 -8.6875 14.25 C-8.26066761 12.66375765 -7.82053842 11.0810902 -7.375 9.5 C-7.00955078 8.17742187 -7.00955078 8.17742187 -6.63671875 6.828125 C-5.23791852 3.02891449 -4.23341084 0.39380566 0 0 Z " fill="#7B4122" transform="translate(740.6875,350.75)"/>
<path d="M0 0 C0.99 0 1.98 0 3 0 C4.25607686 4.87357821 4.18373462 9.69084629 4.1875 14.6875 C4.19974609 15.55439453 4.21199219 16.42128906 4.22460938 17.31445312 C4.22750977 18.55678711 4.22750977 18.55678711 4.23046875 19.82421875 C4.23457764 20.57791748 4.23868652 21.33161621 4.24291992 22.1081543 C4 24 4 24 2 26 C1.95101562 25.00097656 1.90203125 24.00195312 1.8515625 22.97265625 C1.77679687 21.68230469 1.70203125 20.39195312 1.625 19.0625 C1.52058594 17.13083984 1.52058594 17.13083984 1.4140625 15.16015625 C1.27742187 14.11730469 1.14078125 13.07445312 1 12 C0.34 11.67 -0.32 11.34 -1 11 C-1.33 13.97 -1.66 16.94 -2 20 C-2.33 20 -2.66 20 -3 20 C-3.33 14.06 -3.66 8.12 -4 2 C-2.02 2.99 -2.02 2.99 0 4 C0 2.68 0 1.36 0 0 Z " fill="#80472A" transform="translate(699,281)"/>
<path d="M0 0 C1.65 0.33 3.3 0.66 5 1 C3.08957952 11.31627057 3.08957952 11.31627057 0 15 C-1.32 15 -2.64 15 -4 15 C-5.56659619 9.21564482 -5.56659619 9.21564482 -3.953125 5.75390625 C-2.69951916 3.77842065 -1.40435951 1.87085956 0 0 Z " fill="#763A1B" transform="translate(520,537)"/>
<path d="M0 0 C9.9 0 19.8 0 30 0 C29.67 0.99 29.34 1.98 29 3 C19.43 3 9.86 3 0 3 C0 2.01 0 1.02 0 0 Z " fill="#D8865C" transform="translate(553,548)"/>
<path d="M0 0 C0 1.32 0 2.64 0 4 C-3.83724172 4.90413673 -7.37502274 5.10576898 -11.3125 5.0625 C-12.38113281 5.05347656 -13.44976563 5.04445313 -14.55078125 5.03515625 C-15.35902344 5.02355469 -16.16726563 5.01195312 -17 5 C-17 3.68 -17 2.36 -17 1 C-14.91835982 0.63601378 -12.83459438 0.28416713 -10.75 -0.0625 C-9.00976562 -0.35833984 -9.00976562 -0.35833984 -7.234375 -0.66015625 C-4.37477376 -0.9606216 -2.66674071 -0.9439206 0 0 Z " fill="#DF926A" transform="translate(671,960)"/>
<path d="M0 0 C1.32 0 2.64 0 4 0 C5.15957207 3.47871621 4.77456651 4.34219645 3.5625 7.6875 C3.27503906 8.49574219 2.98757813 9.30398438 2.69140625 10.13671875 C2.46324219 10.75160156 2.23507812 11.36648438 2 12 C-2 12 -2 12 -4 11 C-3.39301257 6.87248551 -1.96189209 3.6678852 0 0 Z " fill="#693318" transform="translate(756,548)"/>
<path d="M0 0 C0.33 0.99 0.66 1.98 1 3 C-5.70518586 3.19818283 -11.65176798 3.30844801 -18 1 C-17 -1 -17 -1 -14.9609375 -1.73828125 C-8.87742569 -3.0891517 -5.38127063 -3.32035847 0 0 Z " fill="#D28056" transform="translate(646,556)"/>
<path d="M0 0 C4.6889493 0.55619669 8.19924267 1.88182673 12.375 4.0625 C13.43460938 4.61035156 14.49421875 5.15820312 15.5859375 5.72265625 C16.38257813 6.14417969 17.17921875 6.56570313 18 7 C17.01 8.485 17.01 8.485 16 10 C10.31497465 8.35433477 5.23318364 5.70967216 0 3 C0 2.01 0 1.02 0 0 Z " fill="#DC8E67" transform="translate(508,626)"/>
<path d="M0 0 C-0.33 0.99 -0.66 1.98 -1 3 C-0.34 3.66 0.32 4.32 1 5 C-3.1196377 6.29243536 -6.66831683 7.26252625 -11 7 C-11.66 5.35 -12.32 3.7 -13 2 C-8.49646738 0.24252386 -4.82360189 -0.19294408 0 0 Z " fill="#6A3012" transform="translate(298,476)"/>
<path d="M0 0 C3 0 3 0 5 1 C6.32016935 4.45275062 5.97643706 6.52442938 4.5625 9.8125 C4.046875 10.864375 3.53125 11.91625 3 13 C0 12 0 12 -3 9 C-2.01 6.03 -1.02 3.06 0 0 Z " fill="#854728" transform="translate(931,448)"/>
<path d="M0 0 C2 2 2 2 2 5 C2.45375 4.505 2.9075 4.01 3.375 3.5 C5 2 5 2 7 2 C7 4.64 7 7.28 7 10 C6.34 10 5.68 10 5 10 C4.67 16.27 4.34 22.54 4 29 C3.67 29 3.34 29 3 29 C2.95101562 27.82824219 2.90203125 26.65648437 2.8515625 25.44921875 C2.45409306 16.82605967 1.9166726 8.4482462 0 0 Z " fill="#6C3111" transform="translate(950,355)"/>
<path d="M0 0 C0.33 0 0.66 0 1 0 C1.3902803 2.58185431 1.76263148 5.16420983 2.125 7.75 C2.23714844 8.47960937 2.34929687 9.20921875 2.46484375 9.9609375 C3.01013043 13.95970648 3.32309955 16.60953038 1 20 C0.46375 21.0725 -0.0725 22.145 -0.625 23.25 C-1.07875 24.1575 -1.5325 25.065 -2 26 C-2.33 26 -2.66 26 -3 26 C-3.33 22.7 -3.66 19.4 -4 16 C-3.34 16.33 -2.68 16.66 -2 17 C-1.01 14.03 -0.02 11.06 1 8 C0.34 8 -0.32 8 -1 8 C-0.67 5.36 -0.34 2.72 0 0 Z " fill="#8B563A" transform="translate(329,650)"/>
<path d="M0 0 C2.02350324 3.03525486 2.32124018 4.19426202 2.625 7.6875 C2.69976563 8.49574219 2.77453125 9.30398438 2.8515625 10.13671875 C2.92503906 11.05904297 2.92503906 11.05904297 3 12 C2.34 12 1.68 12 1 12 C0.34 12.66 -0.32 13.32 -1 14 C-1.66 14 -2.32 14 -3 14 C-4.07010304 11.23556715 -4.16283213 9.46148633 -3.17578125 6.6640625 C-2.16488321 4.41525773 -1.11596524 2.19840363 0 0 Z " fill="#7D4426" transform="translate(755,305)"/>
<path d="M0 0 C0.66 0.66 1.32 1.32 2 2 C1.34 4.31 0.68 6.62 0 9 C-1.98 9.33 -3.96 9.66 -6 10 C-5.67 7.69 -5.34 5.38 -5 3 C-4.01 3 -3.02 3 -2 3 C-2 2.34 -2 1.68 -2 1 C-1.34 0.67 -0.68 0.34 0 0 Z " fill="#71371A" transform="translate(769,527)"/>
<path d="M0 0 C0.99 0.33 1.98 0.66 3 1 C4 7.625 4 7.625 4 11 C0.63279613 9.60667426 -0.9859524 8.0210714 -3 5 C-1.125 1.125 -1.125 1.125 0 0 Z " fill="#663014" transform="translate(269,522)"/>
<path d="M0 0 C1.32 1.65 2.64 3.3 4 5 C2.46900221 6.53099779 1.129141 6.64876416 -1 7 C-3.796875 6.66015625 -3.796875 6.66015625 -6.75 6.0625 C-7.73484375 5.86785156 -8.7196875 5.67320312 -9.734375 5.47265625 C-10.48203125 5.31667969 -11.2296875 5.16070313 -12 5 C-12 4.67 -12 4.34 -12 4 C-11.071875 3.87625 -10.14375 3.7525 -9.1875 3.625 C-5.86074765 3.18466918 -5.86074765 3.18466918 -3 1 C-2.01 0.67 -1.02 0.34 0 0 Z " fill="#DC8C63" transform="translate(627,551)"/>
<path d="M0 0 C1.18771723 3.42943519 0.80226223 5.37784675 -0.4375 8.75 C-0.72496094 9.54921875 -1.01242187 10.3484375 -1.30859375 11.171875 C-1.53675781 11.77515625 -1.76492188 12.3784375 -2 13 C-2.99 12.34 -3.98 11.68 -5 11 C-5.99 11.495 -5.99 11.495 -7 12 C-6.67 9.36 -6.34 6.72 -6 4 C-4.35 3.67 -2.7 3.34 -1 3 C-0.67 2.01 -0.34 1.02 0 0 Z " fill="#703314" transform="translate(692,346)"/>
<path d="M0 0 C1.9375 0.25 1.9375 0.25 4 1 C6 4 6 4 6 7 C4.35 7.66 2.7 8.32 1 9 C-0.5625 7.25 -0.5625 7.25 -2 5 C-1.75203633 2.83031791 -1.55766393 1.55766393 0 0 Z " fill="#7B3F21" transform="translate(286,543)"/>
<path d="M0 0 C2 2 2 2 2.3125 5.6875 C2.22482384 10.04739633 0.93666181 13.12667637 -1 17 C-3.67927341 12.98108988 -3.15601248 10.75838077 -3 6 C-2.34 6 -1.68 6 -1 6 C-0.67 4.02 -0.34 2.04 0 0 Z " fill="#6D3113" transform="translate(330,664)"/>
<path d="M0 0 C4.31606218 2.99481865 4.31606218 2.99481865 6 5 C5.875 8.3125 5.875 8.3125 5 11 C2.625 10.3125 2.625 10.3125 0 9 C-1.3125 6.375 -1.3125 6.375 -2 4 C-1.34 4 -0.68 4 0 4 C0 2.68 0 1.36 0 0 Z " fill="#753B1D" transform="translate(273,526)"/>
<path d="M0 0 C2 2 2 2 2 5 C2.99 5 3.98 5 5 5 C4.34 6.32 3.68 7.64 3 9 C1.35 8.67 -0.3 8.34 -2 8 C-2.33 9.32 -2.66 10.64 -3 12 C-3.66 12 -4.32 12 -5 12 C-3.68938409 7.76570244 -2.05643741 3.92592596 0 0 Z " fill="#834C2E" transform="translate(514,547)"/>
<path d="M0 0 C0.33 1.32 0.66 2.64 1 4 C2.05478952 5.09790258 2.05478952 5.09790258 3.625 6.25 C5 8 5 8 4.6875 10.6875 C4.460625 11.450625 4.23375 12.21375 4 13 C3.21625 12.649375 2.4325 12.29875 1.625 11.9375 C0.75875 11.628125 -0.1075 11.31875 -1 11 C-1.99 11.495 -1.99 11.495 -3 12 C-2.01 8.04 -1.02 4.08 0 0 Z " fill="#824627" transform="translate(685,351)"/>
<path d="M0 0 C1.32 0 2.64 0 4 0 C5.60080151 4.00200378 4.29279692 7.04556236 3 11 C2.01 11 1.02 11 0 11 C-1.26026798 8.47946405 -0.91874445 7.1457902 -0.5625 4.375 C-0.46066406 3.55773437 -0.35882813 2.74046875 -0.25390625 1.8984375 C-0.17011719 1.27195312 -0.08632813 0.64546875 0 0 Z " fill="#854B2D" transform="translate(318,618)"/>
<path d="M0 0 C0.99 0.33 1.98 0.66 3 1 C1.35 5.62 -0.3 10.24 -2 15 C-2.99 15 -3.98 15 -5 15 C-1.92482916 4.44191344 -1.92482916 4.44191344 0 0 Z " fill="#E7B694" transform="translate(558,458)"/>
<path d="M0 0 C-0.60990891 3.55780196 -1.5783681 6.6828589 -3 10 C-3.66 10 -4.32 10 -5 10 C-5 9.34 -5 8.68 -5 8 C-5.66 8 -6.32 8 -7 8 C-6.67 5.69 -6.34 3.38 -6 1 C-3 0 -3 0 0 0 Z " fill="#703314" transform="translate(766,296)"/>
<path d="M0 0 C2.475 0.495 2.475 0.495 5 1 C5.39253254 5.44870215 4.15305957 8.14243493 2 12 C-0.13586678 8.79619983 -0.23132175 7.98060033 -0.125 4.3125 C-0.10695313 3.50425781 -0.08890625 2.69601562 -0.0703125 1.86328125 C-0.04710937 1.24839844 -0.02390625 0.63351562 0 0 Z " fill="#713415" transform="translate(325,657)"/>
<path d="M0 0 C0.99 1.32 1.98 2.64 3 4 C-0.3810038 8.13621084 -3.66590534 11.81316569 -8 15 C-6.38102741 11.69918209 -4.64075691 8.47442567 -2.875 5.25 C-2.33617187 4.26515625 -1.79734375 3.2803125 -1.2421875 2.265625 C-0.83226562 1.51796875 -0.42234375 0.7703125 0 0 Z " fill="#EFE4DD" transform="translate(757,560)"/>
<path d="M0 0 C2.34058637 2.12780579 3.70700306 4.11562221 5 7 C6.24546405 4.50907189 5.7767578 3.58919267 5 1 C6.32 2.32 7.64 3.64 9 5 C7.125 9.75 7.125 9.75 6 12 C5.34 12 4.68 12 4 12 C3.32645501 10.56570999 2.66140299 9.12742943 2 7.6875 C1.62875 6.88699219 1.2575 6.08648438 0.875 5.26171875 C0 3 0 3 0 0 Z " fill="#6E3619" transform="translate(300,571)"/>
<path d="M0 0 C-0.41421969 4.83256305 -2.46413986 6.82679218 -6 10 C-7.125 4.25 -7.125 4.25 -6 2 C-3 0 -3 0 0 0 Z " fill="#6F3415" transform="translate(512,564)"/>
<path d="M0 0 C3.63 0 7.26 0 11 0 C11 1.65 11 3.3 11 5 C7.37 4.34 3.74 3.68 0 3 C0 2.01 0 1.02 0 0 Z " fill="#DD9068" transform="translate(824,518)"/>
<path d="M0 0 C0.66 0 1.32 0 2 0 C1.55090939 1.48199902 1.09043436 2.96055236 0.625 4.4375 C0.36976563 5.26121094 0.11453125 6.08492188 -0.1484375 6.93359375 C-1 9 -1 9 -3 10 C-3 8.35 -3 6.7 -3 5 C-3.99 5.33 -4.98 5.66 -6 6 C-5.67 4.35 -5.34 2.7 -5 1 C-3.02 1.495 -3.02 1.495 -1 2 C-0.67 1.34 -0.34 0.68 0 0 Z " fill="#723617" transform="translate(557,456)"/>
<path d="M0 0 C0.66 0.66 1.32 1.32 2 2 C-6.261959 10.44646925 -6.261959 10.44646925 -11 14 C-11.66 13.67 -12.32 13.34 -13 13 C-8.71 8.71 -4.42 4.42 0 0 Z " fill="#E7B28F" transform="translate(771,562)"/>
<path d="M0 0 C4.62 0 9.24 0 14 0 C14.33 0.99 14.66 1.98 15 3 C12.59454362 4.20272819 11.05003047 4.10071472 8.375 4.0625 C7.14910156 4.04896484 7.14910156 4.04896484 5.8984375 4.03515625 C4.95871094 4.01775391 4.95871094 4.01775391 4 4 C4 3.34 4 2.68 4 2 C2.68 1.34 1.36 0.68 0 0 Z " fill="#723413" transform="translate(919,334)"/>
<path d="M0 0 C2.46800047 1.15173355 4.04783565 2.04783565 6 4 C6 4.99 6 5.98 6 7 C4.02 7 2.04 7 0 7 C-0.66 5.35 -1.32 3.7 -2 2 C-1.34 1.34 -0.68 0.68 0 0 Z " fill="#7F4023" transform="translate(425,863)"/>
<path d="M0 0 C2.375 0.3125 2.375 0.3125 5 1 C5.66 1.99 6.32 2.98 7 4 C6.67 4.66 6.34 5.32 6 6 C5.34 6 4.68 6 4 6 C3.67 7.32 3.34 8.64 3 10 C1.5783681 6.6828589 0.60990891 3.55780196 0 0 Z " fill="#7D4120" transform="translate(943,341)"/>
<path d="M0 0 C0.33 1.32 0.66 2.64 1 4 C1.99 3.01 2.98 2.02 4 1 C4 1.99 4 2.98 4 4 C4.66 4 5.32 4 6 4 C4.79618552 6.49361571 3.54571278 8.68143083 2 11 C1.34 10.34 0.68 9.68 0 9 C-0.66 9 -1.32 9 -2 9 C-1.34 6.03 -0.68 3.06 0 0 Z " fill="#82472A" transform="translate(688,341)"/>
<path d="M0 0 C3.63 0 7.26 0 11 0 C11 0.99 11 1.98 11 3 C7.04 3 3.08 3 -1 3 C-0.67 2.01 -0.34 1.02 0 0 Z " fill="#DA895F" transform="translate(654,961)"/>
<path d="M0 0 C2.56616632 3.84924948 2.55097676 6.4349304 3 11 C2.01 11.33 1.02 11.66 0 12 C-0.66 12.99 -1.32 13.98 -2 15 C-2.33 13.02 -2.66 11.04 -3 9 C-1.68 8.34 -0.36 7.68 1 7 C0.67 4.69 0.34 2.38 0 0 Z " fill="#7F4424" transform="translate(318,602)"/>
<path d="M0 0 C0.33 0.99 0.66 1.98 1 3 C1.99 3.33 2.98 3.66 4 4 C2.1875 6.5 2.1875 6.5 0 9 C-0.99 9 -1.98 9 -3 9 C-2.5020163 5.26512223 -2.12508244 3.18762365 0 0 Z " fill="#F4EEEA" transform="translate(881,567)"/>
<path d="M0 0 C1.32 0.99 2.64 1.98 4 3 C3.00156904 5.99529289 2.48615558 7.15840327 0 9 C-2.1875 8.6875 -2.1875 8.6875 -4 8 C-2.87548273 5.0280615 -1.77706209 2.66559313 0 0 Z " fill="#7A3C1D" transform="translate(929,456)"/>
<path d="M0 0 C0.33 0.99 0.66 1.98 1 3 C0.113125 3.721875 -0.77375 4.44375 -1.6875 5.1875 C-4.63741207 7.63992096 -7.32793794 10.24934788 -10 13 C-10 10 -10 10 -7.8125 7.51953125 C-6.884375 6.62621094 -5.95625 5.73289062 -5 4.8125 C-4.071875 3.91144531 -3.14375 3.01039063 -2.1875 2.08203125 C-1.1046875 1.05142578 -1.1046875 1.05142578 0 0 Z " fill="#7E4829" transform="translate(762,562)"/>
<path d="M0 0 C1.65 0.33 3.3 0.66 5 1 C4.50168276 4.68754757 3.89932357 6.60490662 1 9 C1.33 7.35 1.66 5.7 2 4 C0.68 5.32 -0.64 6.64 -2 8 C-2.6875 6.25 -2.6875 6.25 -3 4 C-1.5625 1.75 -1.5625 1.75 0 0 Z " fill="#703214" transform="translate(520,537)"/>
<path d="M0 0 C1.32 0 2.64 0 4 0 C3.773125 0.763125 3.54625 1.52625 3.3125 2.3125 C3.209375 3.199375 3.10625 4.08625 3 5 C4.33378575 6.8354799 4.33378575 6.8354799 6 8 C2.22454612 6.90931332 -0.47043472 6.0916909 -3 3 C-2.34 3 -1.68 3 -1 3 C-0.67 2.01 -0.34 1.02 0 0 Z " fill="#6E3313" transform="translate(342,485)"/>
<path d="M0 0 C1.66905241 3.33810482 2.8741386 6.46157845 4 10 C3.01 10.99 2.02 11.98 1 13 C0.67 11.68 0.34 10.36 0 9 C-0.99 9.495 -0.99 9.495 -2 10 C-1.34 6.7 -0.68 3.4 0 0 Z " fill="#783B1C" transform="translate(934,440)"/>
<path d="M0 0 C1.32 0.33 2.64 0.66 4 1 C3.67 2.65 3.34 4.3 3 6 C2.34 5.67 1.68 5.34 1 5 C0.34 5.66 -0.32 6.32 -1 7 C-3.125 6.625 -3.125 6.625 -5 6 C-4.67 5.01 -4.34 4.02 -4 3 C-3.01 3.33 -2.02 3.66 -1 4 C-0.67 2.68 -0.34 1.36 0 0 Z " fill="#864C2C" transform="translate(737,359)"/>
<path d="M0 0 C0.66 0.33 1.32 0.66 2 1 C-0.64 3.64 -3.28 6.28 -6 9 C-6.66 7.68 -7.32 6.36 -8 5 C-5.45378681 2.99940392 -3.01962385 1.20784954 0 0 Z " fill="#E4B595" transform="translate(703,953)"/>
<path d="M0 0 C2 3.75 2 3.75 2 6 C2.99 6 3.98 6 5 6 C5 5.34 5 4.68 5 4 C5.99 4 6.98 4 8 4 C6.63016497 7.16115776 6.0109362 7.9927092 3 10 C-0.22265625 4.82421875 -0.22265625 4.82421875 -1 3 C-0.67 2.01 -0.34 1.02 0 0 Z " fill="#763C1D" transform="translate(262,516)"/>
<path d="M0 0 C0.66 0.99 1.32 1.98 2 3 C1.34 4.32 0.68 5.64 0 7 C-0.99 6.67 -1.98 6.34 -3 6 C-3.99 6 -4.98 6 -6 6 C-4.95125002 3.37812506 -4.35068687 2.20628639 -1.875 0.75 C-1.25625 0.5025 -0.6375 0.255 0 0 Z " fill="#7E4425" transform="translate(774,517)"/>
<path d="M0 0 C0.66 0 1.32 0 2 0 C1.39305845 3.15330554 0.3583335 5.18888867 -1.5625 7.75 C-2.24505859 8.67039062 -2.24505859 8.67039062 -2.94140625 9.609375 C-3.46541016 10.29773438 -3.46541016 10.29773438 -4 11 C-4.99 10.67 -5.98 10.34 -7 10 C-5.88321917 8.3278148 -4.75633648 6.66237197 -3.625 5 C-2.99851562 4.071875 -2.37203125 3.14375 -1.7265625 2.1875 C-1.15679688 1.465625 -0.58703125 0.74375 0 0 Z " fill="#774328" transform="translate(918,524)"/>
<path d="M0 0 C1.0169313 2.65498232 1.13022151 3.69155375 0.00390625 6.359375 C-0.47175781 7.14828125 -0.94742188 7.9371875 -1.4375 8.75 C-1.91058594 9.54921875 -2.38367188 10.3484375 -2.87109375 11.171875 C-3.24363281 11.77515625 -3.61617187 12.3784375 -4 13 C-4.66 13 -5.32 13 -6 13 C-4.58707905 8.1725201 -2.57025846 4.2837641 0 0 Z " fill="#844E33" transform="translate(680,481)"/>
<path d="M0 0 C0.33 0 0.66 0 1 0 C1.16575651 4.30966915 1.23241672 7.27930547 -1 11 C-1.67966676 12.66140763 -2.34938905 14.32700041 -3 16 C-4.49828872 12.11764181 -3.43110582 9.56550712 -2.0625 5.75 C-1.68222656 4.67234375 -1.30195312 3.5946875 -0.91015625 2.484375 C-0.45962891 1.25460937 -0.45962891 1.25460937 0 0 Z " fill="#E0D3CC" transform="translate(686,371)"/>
<path d="M0 0 C-3.99613521 3.71069698 -6.37082652 5.59791618 -12 6 C-4.89473684 -1.63157895 -4.89473684 -1.63157895 0 0 Z " fill="#7B4123" transform="translate(745,925)"/>
<path d="M0 0 C0.66 0.66 1.32 1.32 2 2 C-0.64 4.64 -3.28 7.28 -6 10 C-6.66 9.34 -7.32 8.68 -8 8 C-5.36 5.36 -2.72 2.72 0 0 Z " fill="#F2BD9A" transform="translate(974,451)"/>
<path d="M0 0 C0.66 0.99 1.32 1.98 2 3 C1.01 4.98 0.02 6.96 -1 9 C-1.66 9 -2.32 9 -3 9 C-3 9.66 -3 10.32 -3 11 C-3.66 11 -4.32 11 -5 11 C-3.77472971 6.94718288 -2.30119506 3.55639236 0 0 Z " fill="#EAB492" transform="translate(768,294)"/>
<path d="M0 0 C2.97 0 5.94 0 9 0 C8.67 0.99 8.34 1.98 8 3 C5.03 3 2.06 3 -1 3 C-0.67 2.01 -0.34 1.02 0 0 Z " fill="#D9875C" transform="translate(755,372)"/>
<path d="M0 0 C0.66 0.66 1.32 1.32 2 2 C1.67028521 5.29714793 1.3773161 6.6226839 -1 9 C-1.66 9 -2.32 9 -3 9 C-2.01 6.03 -1.02 3.06 0 0 Z " fill="#E9B08D" transform="translate(757,317)"/>
<path d="M0 0 C1.65 0.33 3.3 0.66 5 1 C4.34 2.98 3.68 4.96 3 7 C2.01 7 1.02 7 0 7 C-1.125 2.25 -1.125 2.25 0 0 Z " fill="#854A2B" transform="translate(752,312)"/>
<path d="M0 0 C0.82638376 2.89234315 1 4.88742431 1 8 C-1 10.75 -1 10.75 -3 13 C-2.45144652 8.428721 -1.58255197 4.32564205 0 0 Z " fill="#DED0C8" transform="translate(694,344)"/>
<path d="M0 0 C0.66 0 1.32 0 2 0 C1.91291331 1.45945288 1.80473093 2.91765868 1.6875 4.375 C1.62949219 5.18710937 1.57148437 5.99921875 1.51171875 6.8359375 C1 9 1 9 -2 11 C-1.125 3.375 -1.125 3.375 0 0 Z " fill="#874C2C" transform="translate(691,330)"/>
<path d="M0 0 C1.98 0 3.96 0 6 0 C6.33 0.99 6.66 1.98 7 3 C2.25 4.125 2.25 4.125 0 3 C0 2.01 0 1.02 0 0 Z " fill="#814526" transform="translate(902,548)"/>
<path d="M0 0 C0.75 1.5625 0.75 1.5625 1 4 C-0.13084437 6.50286409 -1.52139516 8.67007722 -3 11 C-3.66 11 -4.32 11 -5 11 C-3.77472971 6.94718288 -2.30119506 3.55639236 0 0 Z " fill="#7A472C" transform="translate(765,286)"/>
<path d="M0 0 C0.66 0.33 1.32 0.66 2 1 C0.02 3.31 -1.96 5.62 -4 8 C-4.99 7.67 -5.98 7.34 -7 7 C-4.69 4.69 -2.38 2.38 0 0 Z " fill="#EBB593" transform="translate(789,266)"/>
<path d="M0 0 C0.66 0.33 1.32 0.66 2 1 C2 1.66 2 2.32 2 3 C2.99 3.66 3.98 4.32 5 5 C1.7 4.67 -1.6 4.34 -5 4 C-3.35 2.68 -1.7 1.36 0 0 Z " fill="#894927" transform="translate(692,952)"/>
<path d="M0 0 C2.475 0.99 2.475 0.99 5 2 C5 2.99 5 3.98 5 5 C2.69 4.67 0.38 4.34 -2 4 C-1.34 3.67 -0.68 3.34 0 3 C0 2.01 0 1.02 0 0 Z " fill="#DB8D66" transform="translate(480,643)"/>
<path d="M0 0 C2.64752004 2.57784846 4.94432065 4.91648098 7 8 C4 8 4 8 1.8125 6.25 C0 4 0 4 0 0 Z " fill="#F0E8E4" transform="translate(275,537)"/>
<path d="M0 0 C1.2077558 3.62326739 0.54311128 4.64146369 -1 8 C-1.99 8 -2.98 8 -4 8 C-3.34 6.02 -2.68 4.04 -2 2 C-1.34 2 -0.68 2 0 2 C0 1.34 0 0.68 0 0 Z " fill="#F2B997" transform="translate(557,465)"/>
<path d="M0 0 C0.6875 1.6875 0.6875 1.6875 1 4 C-0.4375 6.75 -0.4375 6.75 -2 9 C-2.66 8.34 -3.32 7.68 -4 7 C-3.68134222 3.70720291 -2.45484649 2.13464912 0 0 Z " fill="#703717" transform="translate(738,362)"/>
<path d="M0 0 C1.32 0.66 2.64 1.32 4 2 C3.67 3.65 3.34 5.3 3 7 C1.68 6.01 0.36 5.02 -1 4 C-0.67 2.68 -0.34 1.36 0 0 Z " fill="#7E4220" transform="translate(275,530)"/>
<path d="M0 0 C0.66 0.66 1.32 1.32 2 2 C1.625 4.625 1.625 4.625 1 7 C0.34 7 -0.32 7 -1 7 C-1 7.99 -1 8.98 -1 10 C-1.66 10 -2.32 10 -3 10 C-2.01 6.7 -1.02 3.4 0 0 Z " fill="#EAB390" transform="translate(580,402)"/>
<path d="M0 0 C3.3 0 6.6 0 10 0 C6.71299843 1.64350079 4.52069985 2.41321669 1 3 C0.67 2.01 0.34 1.02 0 0 Z " fill="#D78C64" transform="translate(685,957)"/>
<path d="M0 0 C-1.39332574 3.36720387 -2.9789286 4.9859524 -6 7 C-6.66 6.67 -7.32 6.34 -8 6 C-7.0479279 4.99403703 -6.08812654 3.99538437 -5.125 3 C-4.59132813 2.443125 -4.05765625 1.88625 -3.5078125 1.3125 C-2 0 -2 0 0 0 Z " fill="#804E34" transform="translate(786,262)"/>
<path d="M0 0 C-0.66 1.32 -1.32 2.64 -2 4 C-4.31 4 -6.62 4 -9 4 C-6.43425105 1.43425105 -3.68548192 0 0 0 Z " fill="#7F4323" transform="translate(706,947)"/>
<path d="M0 0 C0.99 0.33 1.98 0.66 3 1 C1.35 2.65 -0.3 4.3 -2 6 C-2.99 5.67 -3.98 5.34 -5 5 C-3.35 3.35 -1.7 1.7 0 0 Z " fill="#794325" transform="translate(768,556)"/>
<path d="M0 0 C0.66 0.99 1.32 1.98 2 3 C1.01 4.98 0.02 6.96 -1 9 C-1.66 9 -2.32 9 -3 9 C-2.01 6.03 -1.02 3.06 0 0 Z " fill="#E7B291" transform="translate(723,401)"/>
<path d="M0 0 C2.1519437 3.22791555 2.20086443 4.28400809 2 8 C0.68 7.67 -0.64 7.34 -2 7 C-1.34 4.69 -0.68 2.38 0 0 Z " fill="#885439" transform="translate(724,382)"/>
<path d="M0 0 C0.66 0.66 1.32 1.32 2 2 C0.35 3.32 -1.3 4.64 -3 6 C-3.66 5.67 -4.32 5.34 -5 5 C-3.35 3.35 -1.7 1.7 0 0 Z " fill="#814325" transform="translate(699,959)"/>
<path d="M0 0 C2.31 0 4.62 0 7 0 C6.01 0.66 5.02 1.32 4 2 C4.33 2.66 4.66 3.32 5 4 C3.35 3.67 1.7 3.34 0 3 C0 2.01 0 1.02 0 0 Z " fill="#DE8F67" transform="translate(544,610)"/>
<path d="M0 0 C0.66 1.32 1.32 2.64 2 4 C-0.475 5.485 -0.475 5.485 -3 7 C-3 3.48283697 -2.17554415 2.62878252 0 0 Z " fill="#834C2E" transform="translate(884,571)"/>
<path d="M0 0 C1.32 0.66 2.64 1.32 4 2 C3.67 3.32 3.34 4.64 3 6 C2.34 5.34 1.68 4.68 1 4 C0.01 4.495 0.01 4.495 -1 5 C-0.67 3.35 -0.34 1.7 0 0 Z " fill="#723516" transform="translate(927,512)"/>
<path d="M0 0 C0.66 0.99 1.32 1.98 2 3 C0.625 5.5 0.625 5.5 -1 8 C-1.66 8 -2.32 8 -3 8 C-1.125 2.25 -1.125 2.25 0 0 Z " fill="#81462A" transform="translate(908,500)"/>
<path d="M0 0 C2 2 2 2 2.125 4.625 C2.08375 5.40875 2.0425 6.1925 2 7 C1.01 7.33 0.02 7.66 -1 8 C-1.125 2.25 -1.125 2.25 0 0 Z " fill="#713517" transform="translate(955,376)"/>
</svg>
